<svg width="656.055" height="113.965" viewBox="0 0 656.055 113.965" xmlns="http://www.w3.org/2000/svg"><g id="svgGroup" stroke-linecap="round" fill-rule="evenodd" font-size="9pt" stroke="#000" stroke-width="0.25mm" fill="#000" style="stroke:#000;stroke-width:0.25mm;fill:#000"><path d="M 598.926 102.49 L 573.34 80.078 A 56.705 56.705 0 0 1 564.398 82.171 A 45.82 45.82 0 0 1 557.764 82.666 A 38.81 38.81 0 0 1 549.406 81.797 A 32.718 32.718 0 0 1 544.214 80.2 Q 538.086 77.734 533.691 73.34 A 30.665 30.665 0 0 1 526.88 62.891 A 34.22 34.22 0 0 1 524.579 52.745 A 40.577 40.577 0 0 1 524.463 49.658 A 32.117 32.117 0 0 1 526.978 37.085 Q 529.492 31.104 533.765 26.123 A 49.713 49.713 0 0 1 543.652 17.334 Q 549.268 13.525 555.469 11.279 Q 556.442 10.944 557.727 10.539 A 153.78 153.78 0 0 1 558.96 10.156 A 61.657 61.657 0 0 1 561.145 9.534 A 80.002 80.002 0 0 1 563.55 8.936 A 55.848 55.848 0 0 1 567.169 8.222 A 65.873 65.873 0 0 1 568.921 7.959 Q 571.777 7.568 574.756 7.568 A 33.876 33.876 0 0 1 581.17 8.157 A 29.444 29.444 0 0 1 583.887 8.813 Q 588.135 10.059 591.675 12.329 Q 595.215 14.6 597.998 17.749 Q 600.781 20.898 602.71 24.683 A 35.415 35.415 0 0 1 605.64 32.764 Q 606.641 37.061 606.641 41.602 Q 606.641 46.777 605.225 51.343 A 35.949 35.949 0 0 1 601.343 59.839 A 39.294 39.294 0 0 1 595.508 67.065 Q 592.139 70.361 588.232 72.998 A 304.439 304.439 0 0 0 597.559 81.763 A 578.026 578.026 0 0 0 601.924 85.653 Q 604.072 87.548 606.006 89.209 A 581.831 581.831 0 0 0 610.315 92.908 A 502.024 502.024 0 0 0 614.453 96.387 A 55.765 55.765 0 0 0 622.018 100.401 A 61.279 61.279 0 0 0 622.559 100.635 Q 624.414 101.465 626.563 102.222 A 48.413 48.413 0 0 0 630.49 103.415 A 53.718 53.718 0 0 0 631.079 103.564 Q 633.447 104.15 635.986 104.517 Q 638.525 104.883 641.162 104.883 A 32.088 32.088 0 0 0 648.682 103.979 A 25.049 25.049 0 0 0 654.638 101.688 A 29.173 29.173 0 0 0 656.055 100.879 A 73.073 73.073 0 0 1 649.809 105.709 A 66.922 66.922 0 0 1 648.901 106.323 Q 645.264 108.74 641.455 110.425 A 43.805 43.805 0 0 1 633.667 113.037 A 36.121 36.121 0 0 1 625.439 113.965 A 34.376 34.376 0 0 1 619.649 113.461 A 37.673 37.673 0 0 1 619.458 113.428 A 30.522 30.522 0 0 1 615.358 112.397 A 37.048 37.048 0 0 1 613.135 111.597 Q 609.863 110.303 606.323 108.081 A 50.869 50.869 0 0 1 602.704 105.573 A 69.042 69.042 0 0 1 598.926 102.49 Z M 359.521 74.805 A 30.59 30.59 0 0 0 364.307 70.898 A 40.312 40.312 0 0 1 362.423 71.925 A 34.647 34.647 0 0 1 355.64 74.561 Q 351.27 75.732 347.705 76.172 Q 344.852 76.541 342.137 76.541 A 38.614 38.614 0 0 1 339.697 76.465 Q 332.764 75.83 326.855 73.34 A 36.552 36.552 0 0 1 326.123 73.022 A 32.035 32.035 0 0 1 316.65 66.626 A 28.911 28.911 0 0 1 315.353 65.265 A 30.568 30.568 0 0 1 309.912 56.494 A 30.993 30.993 0 0 1 308.081 50.183 A 39.758 39.758 0 0 1 307.471 43.066 A 50.022 50.022 0 0 1 307.637 38.91 Q 308.572 27.707 314.746 21.533 Q 319.748 16.531 328.05 14.968 A 44.538 44.538 0 0 1 336.279 14.258 Q 336.755 14.258 337.643 14.299 A 89.521 89.521 0 0 1 338.281 14.331 A 33.7 33.7 0 0 1 339.722 14.441 A 45.571 45.571 0 0 1 341.309 14.624 A 46.233 46.233 0 0 1 342.174 14.747 A 53.432 53.432 0 0 1 344.775 15.21 Q 346.582 15.576 348.047 16.162 Q 348.756 16.446 349.346 16.787 A 7.134 7.134 0 0 1 350.464 17.578 A 3.381 3.381 0 0 1 350.869 17.995 A 2.307 2.307 0 0 1 351.416 19.482 Q 351.416 19.936 351.158 20.412 A 3.325 3.325 0 0 1 350.83 20.898 Q 350.427 21.402 349.701 21.952 A 12.897 12.897 0 0 1 348.975 22.461 Q 352.307 20.337 354.637 18.845 A 1403.3 1403.3 0 0 0 356.079 17.92 A 564.879 564.879 0 0 0 357.261 17.159 Q 358.488 16.366 359.398 15.768 A 151.806 151.806 0 0 0 360.205 15.234 Q 361.865 14.111 362.598 13.672 A 4.704 4.704 0 0 0 362.687 13.467 Q 362.932 12.86 362.932 12.341 A 1.898 1.898 0 0 0 362.744 11.499 Q 362.476 10.949 361.964 10.498 A 4.715 4.715 0 0 0 361.206 9.961 Q 360.107 9.326 358.472 8.96 A 27.787 27.787 0 0 0 357.628 8.785 A 31.98 31.98 0 0 0 355.005 8.398 A 55.265 55.265 0 0 0 351.294 8.13 A 101.054 101.054 0 0 0 349.481 8.075 A 80.118 80.118 0 0 0 347.803 8.057 Q 342.383 8.057 336.401 9.302 A 66.532 66.532 0 0 0 324.609 12.939 A 64.574 64.574 0 0 0 313.525 18.823 A 46.133 46.133 0 0 0 304.248 26.88 Q 300.244 31.445 297.876 37.012 A 28.795 28.795 0 0 0 296.84 39.853 A 31.309 31.309 0 0 0 295.508 49.072 Q 295.508 56.982 298.047 63.306 A 29.507 29.507 0 0 0 305.322 74.048 A 30.261 30.261 0 0 0 309.156 77.081 A 34.854 34.854 0 0 0 316.797 80.884 A 40.88 40.88 0 0 0 323.468 82.64 A 51.604 51.604 0 0 0 331.885 83.398 A 66.529 66.529 0 0 0 343.652 81.543 A 67.466 67.466 0 0 0 345.23 81.12 A 79.123 79.123 0 0 0 348.853 80.005 Q 351.563 79.102 354.248 77.808 Q 356.934 76.514 359.521 74.805 Z M 112.939 13.867 L 111.035 74.463 A 6.52 6.52 0 0 0 112.787 75.373 A 8.181 8.181 0 0 0 113.721 75.635 A 15.038 15.038 0 0 0 116.943 75.977 A 24.186 24.186 0 0 0 120.215 75.757 A 38.312 38.312 0 0 0 121.696 75.527 Q 122.395 75.403 123.014 75.263 A 23.191 23.191 0 0 0 123.096 75.244 A 31.106 31.106 0 0 0 125.085 74.728 A 26.351 26.351 0 0 0 125.928 74.463 Q 123.975 76.074 121.509 77.808 A 45.388 45.388 0 0 1 116.26 80.981 A 34.491 34.491 0 0 1 110.425 83.35 Q 107.373 84.277 104.248 84.277 Q 103.271 84.277 102.344 84.033 A 4.252 4.252 0 0 1 100.684 83.179 A 3.934 3.934 0 0 1 99.849 82.199 A 5.114 5.114 0 0 1 99.512 81.543 Q 99.116 80.62 99.116 79.262 A 9.835 9.835 0 0 1 99.121 78.955 Q 99.121 77.219 99.292 70.694 A 2017.477 2017.477 0 0 1 99.316 69.775 A 474.578 474.578 0 0 1 99.345 68.117 Q 99.394 65.569 99.481 62.212 A 1303.267 1303.267 0 0 1 99.487 61.987 A 32726.512 32726.512 0 0 0 99.586 58.219 Q 99.63 56.536 99.678 54.664 A 64297.372 64297.372 0 0 0 99.78 50.732 A 6153.953 6153.953 0 0 1 99.919 45.483 Q 100.043 40.854 100.195 35.376 A 8198.004 8198.004 0 0 0 100.418 27.216 Q 100.53 23.046 100.651 18.419 A 14015.055 14015.055 0 0 0 100.732 15.283 Q 96.143 15.82 91.626 16.138 A 129.875 129.875 0 0 1 82.52 16.455 A 59.869 59.869 0 0 1 79.684 16.392 Q 78.354 16.329 77.208 16.202 A 26.61 26.61 0 0 1 75.537 15.967 A 12.579 12.579 0 0 1 74.103 15.634 Q 72.438 15.135 71.631 14.258 A 1.737 1.737 0 0 1 71.388 13.358 Q 71.388 12.786 71.72 12.106 A 5.47 5.47 0 0 1 72.021 11.572 Q 72.34 11.076 72.865 10.477 A 16.904 16.904 0 0 1 73.291 10.01 Q 74.121 9.131 75.562 8.057 Q 76.664 7.234 78.154 6.297 A 62.823 62.823 0 0 1 79.102 5.713 A 54.954 54.954 0 0 1 80.793 4.733 Q 82.3 3.894 84.131 2.979 A 5.567 5.567 0 0 0 83.809 3.421 Q 83.361 4.11 83.398 4.614 A 2.361 2.361 0 0 0 83.497 5.149 A 1.778 1.778 0 0 0 83.789 5.713 A 2.509 2.509 0 0 0 84.373 6.282 A 3.449 3.449 0 0 0 84.912 6.592 A 10.192 10.192 0 0 0 85.826 6.884 Q 86.836 7.161 88.297 7.401 A 45.704 45.704 0 0 0 89.233 7.544 A 32.726 32.726 0 0 0 91.269 7.763 Q 93.405 7.931 96.335 7.955 A 121.04 121.04 0 0 0 97.314 7.959 A 139.872 139.872 0 0 0 108.472 7.52 Q 113.965 7.08 119.312 6.519 Q 124.658 5.957 129.956 5.518 A 127.828 127.828 0 0 1 140.527 5.078 Q 141.943 5.078 143.042 5.151 Q 144.06 5.219 144.638 5.434 A 2.436 2.436 0 0 1 144.727 5.469 Q 145.653 5.81 145.362 6.565 A 1.388 1.388 0 0 1 145.361 6.567 A 2.569 2.569 0 0 1 145.1 7.059 Q 144.725 7.622 143.97 8.276 A 19.677 19.677 0 0 1 142.91 9.128 Q 142.166 9.688 141.26 10.278 Q 139.648 11.328 137.939 12.256 A 54.74 54.74 0 0 1 135.86 13.33 A 45.318 45.318 0 0 1 134.668 13.892 Q 133.38 14.475 132.557 14.777 A 11.966 11.966 0 0 1 132.227 14.893 Q 132.657 13.41 131.682 12.794 A 1.829 1.829 0 0 0 131.641 12.769 A 2.269 2.269 0 0 0 131.105 12.548 Q 130.022 12.239 127.772 12.373 A 29.259 29.259 0 0 0 127.344 12.402 A 331.54 331.54 0 0 0 112.939 13.867 Z M 184.961 13.867 L 183.057 74.463 A 6.52 6.52 0 0 0 184.809 75.373 A 8.181 8.181 0 0 0 185.742 75.635 A 15.038 15.038 0 0 0 188.965 75.977 A 24.186 24.186 0 0 0 192.236 75.757 A 38.312 38.312 0 0 0 193.717 75.527 Q 194.416 75.403 195.035 75.263 A 23.191 23.191 0 0 0 195.117 75.244 A 31.106 31.106 0 0 0 197.106 74.728 A 26.351 26.351 0 0 0 197.949 74.463 Q 195.996 76.074 193.53 77.808 A 45.388 45.388 0 0 1 188.281 80.981 A 34.491 34.491 0 0 1 182.446 83.35 Q 179.395 84.277 176.27 84.277 Q 175.293 84.277 174.365 84.033 A 4.252 4.252 0 0 1 172.705 83.179 A 3.934 3.934 0 0 1 171.87 82.199 A 5.114 5.114 0 0 1 171.533 81.543 Q 171.138 80.62 171.138 79.262 A 9.835 9.835 0 0 1 171.143 78.955 Q 171.143 77.219 171.314 70.694 A 2017.477 2017.477 0 0 1 171.338 69.775 A 474.578 474.578 0 0 1 171.367 68.117 Q 171.416 65.569 171.503 62.212 A 1303.267 1303.267 0 0 1 171.509 61.987 A 32726.512 32726.512 0 0 0 171.607 58.219 Q 171.651 56.536 171.7 54.664 A 64297.372 64297.372 0 0 0 171.802 50.732 A 6153.953 6153.953 0 0 1 171.94 45.483 Q 172.064 40.854 172.217 35.376 A 8198.004 8198.004 0 0 0 172.44 27.216 Q 172.552 23.046 172.672 18.419 A 14015.055 14015.055 0 0 0 172.754 15.283 Q 168.164 15.82 163.647 16.138 A 129.875 129.875 0 0 1 154.541 16.455 A 59.869 59.869 0 0 1 151.706 16.392 Q 150.376 16.329 149.23 16.202 A 26.61 26.61 0 0 1 147.559 15.967 A 12.579 12.579 0 0 1 146.124 15.634 Q 144.46 15.135 143.652 14.258 A 1.737 1.737 0 0 1 143.41 13.358 Q 143.41 12.786 143.742 12.106 A 5.47 5.47 0 0 1 144.043 11.572 Q 144.362 11.076 144.887 10.477 A 16.904 16.904 0 0 1 145.313 10.01 Q 146.143 9.131 147.583 8.057 Q 148.686 7.234 150.175 6.297 A 62.823 62.823 0 0 1 151.123 5.713 A 54.954 54.954 0 0 1 152.814 4.733 Q 154.321 3.894 156.152 2.979 A 5.567 5.567 0 0 0 155.831 3.421 Q 155.383 4.11 155.42 4.614 A 2.361 2.361 0 0 0 155.519 5.149 A 1.778 1.778 0 0 0 155.811 5.713 A 2.509 2.509 0 0 0 156.395 6.282 A 3.449 3.449 0 0 0 156.934 6.592 A 10.192 10.192 0 0 0 157.848 6.884 Q 158.858 7.161 160.318 7.401 A 45.704 45.704 0 0 0 161.255 7.544 A 32.726 32.726 0 0 0 163.291 7.763 Q 165.427 7.931 168.356 7.955 A 121.04 121.04 0 0 0 169.336 7.959 A 139.872 139.872 0 0 0 180.493 7.52 Q 185.986 7.08 191.333 6.519 Q 196.68 5.957 201.978 5.518 A 127.828 127.828 0 0 1 212.549 5.078 Q 213.965 5.078 215.063 5.151 Q 216.082 5.219 216.659 5.434 A 2.436 2.436 0 0 1 216.748 5.469 Q 217.674 5.81 217.384 6.565 A 1.388 1.388 0 0 1 217.383 6.567 A 2.569 2.569 0 0 1 217.121 7.059 Q 216.747 7.622 215.991 8.276 A 19.677 19.677 0 0 1 214.932 9.128 Q 214.188 9.688 213.281 10.278 Q 211.67 11.328 209.961 12.256 A 54.74 54.74 0 0 1 207.882 13.33 A 45.318 45.318 0 0 1 206.689 13.892 Q 205.402 14.475 204.578 14.777 A 11.966 11.966 0 0 1 204.248 14.893 Q 204.678 13.41 203.704 12.794 A 1.829 1.829 0 0 0 203.662 12.769 A 2.269 2.269 0 0 0 203.126 12.548 Q 202.044 12.239 199.793 12.373 A 29.259 29.259 0 0 0 199.365 12.402 A 331.54 331.54 0 0 0 184.961 13.867 Z M 29.102 59.18 L 14.697 59.18 L 10.693 68.555 Q 10.352 69.482 10.229 70.435 Q 10.107 71.387 10.4 72.168 Q 10.693 72.949 11.548 73.462 A 2.943 2.943 0 0 0 12.236 73.754 Q 12.915 73.953 13.892 73.972 A 10.845 10.845 0 0 0 14.111 73.975 A 11.614 11.614 0 0 0 15.081 73.932 Q 15.588 73.889 16.148 73.804 A 19.383 19.383 0 0 0 16.309 73.779 A 26.602 26.602 0 0 0 17.442 73.571 Q 18.02 73.453 18.659 73.299 A 46.298 46.298 0 0 0 19.092 73.193 A 375.834 375.834 0 0 1 17.144 75.024 Q 16.375 75.742 15.678 76.382 A 194.825 194.825 0 0 1 14.355 77.588 A 33.26 33.26 0 0 1 12.641 79.038 Q 11.563 79.886 10.547 80.518 A 14.701 14.701 0 0 1 8.068 81.762 A 12.738 12.738 0 0 1 6.885 82.153 A 13.579 13.579 0 0 1 4.895 82.538 Q 3.899 82.658 2.786 82.666 A 22.092 22.092 0 0 1 2.637 82.666 A 4.621 4.621 0 0 1 1.913 82.613 Q 1.538 82.554 1.242 82.426 A 1.773 1.773 0 0 1 0.61 81.982 Q 0.07 81.377 0.008 80.35 A 4.53 4.53 0 0 1 0 80.078 A 7.749 7.749 0 0 1 0.111 78.824 Q 0.299 77.682 0.806 76.27 A 60.212 60.212 0 0 1 1.684 73.979 Q 2.17 72.779 2.754 71.465 A 98.623 98.623 0 0 1 2.832 71.289 Q 3.673 69.246 5.83 64.342 A 1319.669 1319.669 0 0 1 6.836 62.061 Q 7.709 60.08 8.835 57.522 A 65373.494 65373.494 0 0 0 9.912 55.078 A 1937.703 1937.703 0 0 1 11.363 51.793 Q 12.653 48.88 14.209 45.386 A 2340.434 2340.434 0 0 0 16.523 40.171 Q 17.705 37.502 19.012 34.532 A 4039.783 4039.783 0 0 0 19.897 32.52 A 2495.519 2495.519 0 0 1 23.094 25.28 Q 24.778 21.484 26.657 17.275 A 4131.083 4131.083 0 0 1 27.197 16.064 L 29.492 14.16 A 15.842 15.842 0 0 1 29.537 12.931 Q 29.597 12.164 29.736 11.523 A 8.398 8.398 0 0 1 30.058 10.406 A 6.523 6.523 0 0 1 30.444 9.546 A 7.522 7.522 0 0 1 31.543 8.008 A 17.533 17.533 0 0 1 32.91 6.689 A 102.106 102.106 0 0 1 33.617 6.106 Q 33.932 5.848 34.28 5.567 A 187.819 187.819 0 0 1 35.01 4.98 A 211.418 211.418 0 0 0 36.154 4.047 Q 37.457 2.977 39.266 1.465 A 947.911 947.911 0 0 0 41.016 0 A 7.815 7.815 0 0 0 40.343 1.833 A 9.319 9.319 0 0 0 40.21 2.515 Q 39.99 3.906 39.99 5.273 A 24.87 24.87 0 0 0 40.073 7.329 A 21.949 21.949 0 0 0 40.137 7.983 Q 40.263 9.095 40.425 9.973 A 19.188 19.188 0 0 0 40.479 10.254 A 14.095 14.095 0 0 0 40.762 11.577 A 11.454 11.454 0 0 0 41.016 12.402 Q 41.533 14.094 42.774 17.687 A 467.766 467.766 0 0 0 42.871 17.969 A 362.203 362.203 0 0 0 44.123 21.521 Q 44.774 23.339 45.516 25.362 A 637.524 637.524 0 0 0 46.021 26.733 Q 47.852 31.689 50 37.305 Q 52.148 42.92 54.297 48.291 Q 55.514 48.123 56.478 47.955 A 41.579 41.579 0 0 0 56.787 47.9 A 60.253 60.253 0 0 1 57.303 47.809 Q 58.044 47.681 58.594 47.607 Q 59.164 47.507 59.62 47.429 A 106.222 106.222 0 0 1 60.01 47.363 A 48.284 48.284 0 0 1 58.463 48.769 A 55.135 55.135 0 0 1 57.91 49.243 Q 56.787 50.195 55.518 51.172 Q 56.738 54.15 57.935 56.86 A 358.317 358.317 0 0 0 59.094 59.46 A 278.16 278.16 0 0 0 60.181 61.841 A 86.155 86.155 0 0 0 61.076 63.72 Q 61.496 64.574 61.895 65.329 A 49.957 49.957 0 0 0 62.158 65.82 Q 63.086 67.529 63.818 68.555 A 13.995 13.995 0 0 0 66.113 71.045 A 13.097 13.097 0 0 0 67.66 72.138 A 16.142 16.142 0 0 0 68.726 72.729 Q 70.215 73.486 72.021 73.486 A 6.218 6.218 0 0 0 73.78 73.218 Q 74.812 72.914 75.928 72.266 Q 74.17 74.121 72.192 75.903 Q 70.215 77.686 68.042 79.102 Q 65.869 80.518 63.55 81.396 Q 61.23 82.275 58.789 82.275 Q 56.934 82.275 55.371 81.177 A 6.744 6.744 0 0 1 54.303 80.222 Q 53.354 79.192 52.423 77.527 A 22.998 22.998 0 0 1 52.295 77.295 A 11.956 11.956 0 0 1 52.005 76.79 Q 51.538 75.934 50.879 74.487 A 184.697 184.697 0 0 1 50.182 72.938 Q 49.57 71.561 48.853 69.897 Q 47.705 67.236 46.338 63.989 A 830.242 830.242 0 0 1 44.232 58.94 A 948.43 948.43 0 0 1 43.506 57.178 A 44.245 44.245 0 0 1 39.46 58.185 A 53.153 53.153 0 0 1 36.841 58.643 A 48.557 48.557 0 0 1 32.135 59.104 A 59.439 59.439 0 0 1 29.102 59.18 Z M 246.24 59.18 L 231.836 59.18 L 227.832 68.555 Q 227.49 69.482 227.368 70.435 Q 227.246 71.387 227.539 72.168 Q 227.832 72.949 228.687 73.462 A 2.943 2.943 0 0 0 229.375 73.754 Q 230.053 73.953 231.03 73.972 A 10.845 10.845 0 0 0 231.25 73.975 A 11.614 11.614 0 0 0 232.219 73.932 Q 232.726 73.889 233.286 73.804 A 19.383 19.383 0 0 0 233.447 73.779 A 26.602 26.602 0 0 0 234.581 73.571 Q 235.159 73.453 235.798 73.299 A 46.298 46.298 0 0 0 236.23 73.193 A 375.834 375.834 0 0 1 234.283 75.024 Q 233.514 75.742 232.817 76.382 A 194.825 194.825 0 0 1 231.494 77.588 A 33.26 33.26 0 0 1 229.78 79.038 Q 228.702 79.886 227.686 80.518 A 14.701 14.701 0 0 1 225.207 81.762 A 12.738 12.738 0 0 1 224.023 82.153 A 13.579 13.579 0 0 1 222.034 82.538 Q 221.038 82.658 219.924 82.666 A 22.092 22.092 0 0 1 219.775 82.666 A 4.621 4.621 0 0 1 219.052 82.613 Q 218.677 82.554 218.381 82.426 A 1.773 1.773 0 0 1 217.749 81.982 Q 217.208 81.377 217.147 80.35 A 4.53 4.53 0 0 1 217.139 80.078 A 7.749 7.749 0 0 1 217.25 78.824 Q 217.438 77.682 217.944 76.27 A 60.212 60.212 0 0 1 218.822 73.979 Q 219.309 72.779 219.892 71.465 A 98.623 98.623 0 0 1 219.971 71.289 Q 220.812 69.246 222.969 64.342 A 1319.669 1319.669 0 0 1 223.975 62.061 Q 224.847 60.08 225.974 57.522 A 65373.494 65373.494 0 0 0 227.051 55.078 A 1937.703 1937.703 0 0 1 228.502 51.793 Q 229.791 48.88 231.348 45.386 A 2340.434 2340.434 0 0 0 233.662 40.171 Q 234.843 37.502 236.151 34.532 A 4039.783 4039.783 0 0 0 237.036 32.52 A 2495.519 2495.519 0 0 1 240.233 25.28 Q 241.916 21.484 243.795 17.275 A 4131.083 4131.083 0 0 1 244.336 16.064 L 246.631 14.16 A 15.842 15.842 0 0 1 246.676 12.931 Q 246.736 12.164 246.875 11.523 A 8.398 8.398 0 0 1 247.196 10.406 A 6.523 6.523 0 0 1 247.583 9.546 A 7.522 7.522 0 0 1 248.682 8.008 A 17.533 17.533 0 0 1 250.049 6.689 A 102.106 102.106 0 0 1 250.756 6.106 Q 251.071 5.848 251.419 5.567 A 187.819 187.819 0 0 1 252.148 4.98 A 211.418 211.418 0 0 0 253.293 4.047 Q 254.596 2.977 256.405 1.465 A 947.911 947.911 0 0 0 258.154 0 A 7.815 7.815 0 0 0 257.482 1.833 A 9.319 9.319 0 0 0 257.349 2.515 Q 257.129 3.906 257.129 5.273 A 24.87 24.87 0 0 0 257.211 7.329 A 21.949 21.949 0 0 0 257.275 7.983 Q 257.401 9.095 257.563 9.973 A 19.188 19.188 0 0 0 257.617 10.254 A 14.095 14.095 0 0 0 257.901 11.577 A 11.454 11.454 0 0 0 258.154 12.402 Q 258.671 14.094 259.912 17.687 A 467.766 467.766 0 0 0 260.01 17.969 A 362.203 362.203 0 0 0 261.261 21.521 Q 261.912 23.339 262.654 25.362 A 637.524 637.524 0 0 0 263.159 26.733 Q 264.99 31.689 267.139 37.305 Q 269.287 42.92 271.436 48.291 Q 272.652 48.123 273.617 47.955 A 41.579 41.579 0 0 0 273.926 47.9 A 60.253 60.253 0 0 1 274.442 47.809 Q 275.183 47.681 275.732 47.607 Q 276.303 47.507 276.758 47.429 A 106.222 106.222 0 0 1 277.148 47.363 A 48.284 48.284 0 0 1 275.601 48.769 A 55.135 55.135 0 0 1 275.049 49.243 Q 273.926 50.195 272.656 51.172 Q 273.877 54.15 275.073 56.86 A 358.317 358.317 0 0 0 276.233 59.46 A 278.16 278.16 0 0 0 277.319 61.841 A 86.155 86.155 0 0 0 278.215 63.72 Q 278.635 64.574 279.034 65.329 A 49.957 49.957 0 0 0 279.297 65.82 Q 280.225 67.529 280.957 68.555 A 13.995 13.995 0 0 0 283.252 71.045 A 13.097 13.097 0 0 0 284.799 72.138 A 16.142 16.142 0 0 0 285.864 72.729 Q 287.354 73.486 289.16 73.486 A 6.218 6.218 0 0 0 290.918 73.218 Q 291.951 72.914 293.066 72.266 Q 291.309 74.121 289.331 75.903 Q 287.354 77.686 285.181 79.102 Q 283.008 80.518 280.688 81.396 Q 278.369 82.275 275.928 82.275 Q 274.072 82.275 272.51 81.177 A 6.744 6.744 0 0 1 271.441 80.222 Q 270.492 79.192 269.562 77.527 A 22.998 22.998 0 0 1 269.434 77.295 A 11.956 11.956 0 0 1 269.144 76.79 Q 268.677 75.934 268.018 74.487 A 184.697 184.697 0 0 1 267.321 72.938 Q 266.708 71.561 265.991 69.897 Q 264.844 67.236 263.477 63.989 A 830.242 830.242 0 0 1 261.371 58.94 A 948.43 948.43 0 0 1 260.645 57.178 A 44.245 44.245 0 0 1 256.599 58.185 A 53.153 53.153 0 0 1 253.979 58.643 A 48.557 48.557 0 0 1 249.274 59.104 A 59.439 59.439 0 0 1 246.24 59.18 Z M 455.442 75.15 A 79.086 79.086 0 0 0 458.105 72.998 A 4.438 4.438 0 0 1 457.372 73.391 Q 456.754 73.652 455.997 73.773 A 8.949 8.949 0 0 1 454.59 73.877 A 23.745 23.745 0 0 1 453.273 73.84 A 25.559 25.559 0 0 1 446.167 72.388 Q 441.943 70.898 437.842 68.408 A 64.726 64.726 0 0 1 437.33 68.094 A 70.249 70.249 0 0 1 429.81 62.695 Q 425.879 59.473 422.29 56.055 Q 418.701 52.637 415.552 49.243 A 601.717 601.717 0 0 1 412.543 45.978 A 460.501 460.501 0 0 1 409.814 42.969 A 14.718 14.718 0 0 1 409.307 42.372 Q 408.562 41.445 408.249 40.695 A 2.831 2.831 0 0 1 408.032 39.893 Q 407.91 38.672 408.789 37.793 A 63.903 63.903 0 0 1 412.695 33.838 A 1550.9 1550.9 0 0 1 413.21 33.36 A 1714.619 1714.619 0 0 1 416.943 29.907 A 161.765 161.765 0 0 0 417.494 29.397 A 178.801 178.801 0 0 0 421.411 25.635 A 77.145 77.145 0 0 0 422.835 24.188 A 90.404 90.404 0 0 0 426.001 20.703 A 79.09 79.09 0 0 0 427.451 18.975 A 92.967 92.967 0 0 0 430.64 14.819 A 67.427 67.427 0 0 0 432.44 12.205 A 83.35 83.35 0 0 0 435.205 7.666 A 20.133 20.133 0 0 0 434.307 7.507 A 16.739 16.739 0 0 0 432.886 7.349 Q 431.787 7.275 430.713 7.275 A 19.963 19.963 0 0 0 430.045 7.286 A 17.601 17.601 0 0 0 426.172 7.837 Q 424.023 8.398 421.899 9.351 Q 419.775 10.303 417.554 11.597 A 1215.636 1215.636 0 0 1 415.253 12.933 A 1479.77 1479.77 0 0 1 412.793 14.355 Q 413.276 14.268 414.096 14.279 A 15.237 15.237 0 0 1 414.282 14.282 A 73.346 73.346 0 0 0 416.162 14.307 A 44.926 44.926 0 0 0 416.705 14.328 A 51.15 51.15 0 0 0 418.408 14.355 A 10.276 10.276 0 0 1 419.242 14.387 Q 421.436 14.566 421.436 15.771 A 2.941 2.941 0 0 1 421.436 15.778 Q 421.433 16.85 420.654 18.384 A 21.544 21.544 0 0 1 420.33 18.998 Q 419.951 19.687 419.477 20.44 A 39.453 39.453 0 0 1 418.579 21.802 A 50.402 50.402 0 0 1 417.175 23.737 A 65.672 65.672 0 0 1 415.552 25.781 A 138.198 138.198 0 0 1 411.938 29.98 Q 410.059 32.08 408.13 34.106 A 327.58 327.58 0 0 1 406.25 36.066 A 271.612 271.612 0 0 1 404.468 37.891 A 385.999 385.999 0 0 1 404.413 37.946 Q 403.563 38.808 402.789 39.581 A 242.168 242.168 0 0 1 401.318 41.04 Q 400.256 42.084 399.496 42.812 A 93.298 93.298 0 0 1 399.023 43.262 Q 397.363 44.824 396.68 45.776 A 5.138 5.138 0 0 0 396.332 46.326 Q 396.18 46.608 396.096 46.868 A 1.944 1.944 0 0 0 395.996 47.461 A 2.185 2.185 0 0 0 395.999 47.58 Q 396.022 47.998 396.205 48.422 A 3.551 3.551 0 0 0 396.558 49.048 Q 396.979 49.652 397.633 50.49 A 65.301 65.301 0 0 0 398.096 51.074 A 36.12 36.12 0 0 0 398.342 51.381 Q 399.124 52.345 400.261 53.624 A 121.377 121.377 0 0 0 401.196 54.663 Q 403.174 56.836 405.737 59.424 A 163.987 163.987 0 0 0 407.729 61.399 A 200.609 200.609 0 0 0 411.353 64.844 A 128.474 128.474 0 0 0 417.676 70.337 A 110.762 110.762 0 0 0 424.316 75.342 Q 427.686 77.686 430.933 79.297 A 34.335 34.335 0 0 0 433.718 80.534 A 26.278 26.278 0 0 0 437.134 81.616 A 15.585 15.585 0 0 0 438.37 81.862 Q 440.608 82.21 442.529 81.787 A 10.479 10.479 0 0 0 443.428 81.62 Q 444.157 81.453 444.972 81.171 A 22.521 22.521 0 0 0 446.631 80.518 A 24.756 24.756 0 0 0 447.844 79.956 Q 449.482 79.146 451.538 77.881 Q 453.323 76.782 455.442 75.15 Z M 402.57 75.128 A 119.19 119.19 0 0 0 406.836 72.363 A 10.29 10.29 0 0 1 406.744 72.389 Q 406.094 72.568 405.273 72.705 A 35.523 35.523 0 0 1 404.752 72.766 Q 404.474 72.797 404.163 72.827 A 72 72 0 0 1 403.369 72.9 A 21.774 21.774 0 0 1 402.821 72.941 Q 402.347 72.97 401.813 72.984 A 40.423 40.423 0 0 1 400.732 72.998 A 30.266 30.266 0 0 1 400.622 72.998 Q 399.789 72.995 398.86 72.946 A 50.016 50.016 0 0 1 396.899 72.803 A 51.527 51.527 0 0 1 394.672 72.546 A 68.402 68.402 0 0 1 392.236 72.168 A 9841.861 9841.861 0 0 1 392.237 69.06 Q 392.238 64.474 392.244 60.345 A 5726.196 5726.196 0 0 1 392.261 52.271 Q 392.274 47.395 392.288 43.184 A 13522.044 13522.044 0 0 1 392.31 37.036 Q 392.325 32.932 392.34 29.58 A 5303.51 5303.51 0 0 1 392.358 25.83 A 2452.699 2452.699 0 0 0 392.359 25.72 Q 392.377 22.309 392.381 19.724 A 953.429 953.429 0 0 0 392.383 18.066 A 8077.978 8077.978 0 0 0 392.389 17.148 Q 392.432 10.623 392.432 8.887 A 2.072 2.072 0 0 0 392.43 8.813 A 1.589 1.589 0 0 0 391.992 7.739 A 2.262 2.262 0 0 0 391.943 7.689 Q 391.511 7.261 390.796 7.007 A 7.095 7.095 0 0 0 389.977 6.773 A 9.641 9.641 0 0 0 389.063 6.616 Q 388.086 6.494 387.012 6.494 A 23.16 23.16 0 0 0 381.787 7.08 A 30.625 30.625 0 0 0 376.807 8.691 A 43.497 43.497 0 0 0 371.948 11.108 A 121.24 121.24 0 0 0 367.09 14.063 A 39.905 39.905 0 0 1 368.096 13.825 A 46.397 46.397 0 0 1 370.825 13.306 A 26.703 26.703 0 0 1 372.504 13.089 A 21.034 21.034 0 0 1 374.512 12.988 A 15.344 15.344 0 0 1 374.928 12.994 A 13.482 13.482 0 0 1 376.563 13.135 Q 377.539 13.281 378.247 13.647 A 3.62 3.62 0 0 1 378.543 13.818 A 2.966 2.966 0 0 1 379.37 14.6 A 1.946 1.946 0 0 1 379.67 15.264 Q 379.761 15.628 379.736 16.064 A 18.577 18.577 0 0 0 379.718 16.415 Q 379.689 17.094 379.66 18.462 A 331.031 331.031 0 0 0 379.639 19.556 Q 379.608 21.249 379.578 23.429 A 1694.453 1694.453 0 0 0 379.541 26.221 A 3312.1 3312.1 0 0 0 379.492 30.402 A 4506.084 4506.084 0 0 0 379.443 35.034 A 22861.224 22861.224 0 0 0 379.346 44.971 A 42378.949 42378.949 0 0 1 379.248 55.005 Q 379.199 59.961 379.175 64.136 Q 379.16 66.745 379.144 68.906 A 2431.373 2431.373 0 0 1 379.126 71.338 Q 379.108 73.608 379.103 74.863 A 201.869 201.869 0 0 0 379.102 75.586 A 22.772 22.772 0 0 0 379.103 75.795 Q 379.116 77.25 379.317 78.301 A 6.652 6.652 0 0 0 379.59 79.321 A 5.82 5.82 0 0 0 379.629 79.426 Q 379.823 79.929 380.084 80.324 A 3.215 3.215 0 0 0 381.03 81.274 A 3.612 3.612 0 0 0 381.298 81.43 Q 381.782 81.685 382.381 81.819 A 6.33 6.33 0 0 0 383.447 81.958 A 18.484 18.484 0 0 0 383.694 81.969 Q 385.071 82.019 386.816 81.885 Q 388.721 81.689 390.991 80.908 A 38.34 38.34 0 0 0 393.335 80.011 A 49.584 49.584 0 0 0 395.825 78.882 A 63.087 63.087 0 0 0 397.779 77.89 A 76.56 76.56 0 0 0 401.172 75.977 A 107.054 107.054 0 0 0 402.57 75.128 Z M 519.189 73.682 Q 516.309 75.635 513.525 77.271 A 75.175 75.175 0 0 1 510.132 79.153 A 61.958 61.958 0 0 1 508.179 80.127 A 48.621 48.621 0 0 1 505.688 81.232 A 37.621 37.621 0 0 1 503.345 82.104 A 23.516 23.516 0 0 1 501.297 82.691 Q 500.182 82.953 499.17 83.057 A 36.789 36.789 0 0 1 497.759 83.175 Q 496.897 83.23 496.151 83.23 A 19.229 19.229 0 0 1 495.825 83.228 A 5.588 5.588 0 0 1 494.731 83.107 Q 494.011 82.95 493.445 82.592 A 3.551 3.551 0 0 1 493.408 82.568 A 3.337 3.337 0 0 1 492.41 81.54 Q 492.146 81.125 491.956 80.6 A 5.94 5.94 0 0 1 491.943 80.566 A 6.822 6.822 0 0 1 491.675 79.554 Q 491.455 78.398 491.455 76.758 A 200.622 200.622 0 0 1 491.457 76.036 Q 491.461 74.786 491.479 72.534 A 2337.151 2337.151 0 0 0 491.498 70.117 Q 491.513 67.966 491.528 65.356 Q 491.553 61.182 491.602 56.226 A 42378.949 42378.949 0 0 0 491.699 46.191 A 20423.27 20423.27 0 0 1 491.797 36.279 A 4576.678 4576.678 0 0 1 491.846 31.665 A 3389.344 3389.344 0 0 1 491.895 27.49 Q 491.943 23.559 491.992 20.881 A 625.857 625.857 0 0 1 491.992 20.85 A 326.607 326.607 0 0 1 492.014 19.766 Q 492.043 18.409 492.072 17.733 A 18.687 18.687 0 0 1 492.09 17.383 A 3.764 3.764 0 0 0 492.091 17.275 Q 492.091 15.803 490.907 15.102 A 3.219 3.219 0 0 0 490.649 14.966 A 6.811 6.811 0 0 0 489.098 14.458 Q 488.372 14.308 487.534 14.27 A 12.791 12.791 0 0 0 486.963 14.258 A 20.911 20.911 0 0 0 483.947 14.483 A 23.727 23.727 0 0 0 483.228 14.6 Q 481.299 14.941 479.492 15.381 A 90.532 90.532 0 0 1 483.186 13.042 A 81.429 81.429 0 0 1 484.399 12.329 Q 486.816 10.938 489.282 9.912 A 29.743 29.743 0 0 1 494.287 8.325 Q 496.826 7.764 499.561 7.764 A 16.998 16.998 0 0 1 500.856 7.811 A 14.359 14.359 0 0 1 501.587 7.886 A 8.957 8.957 0 0 1 502.373 8.021 Q 502.775 8.109 503.121 8.23 A 5.291 5.291 0 0 1 503.247 8.276 A 3.644 3.644 0 0 1 503.801 8.539 Q 504.107 8.719 504.333 8.946 A 2.231 2.231 0 0 1 504.37 8.984 A 1.504 1.504 0 0 1 504.785 10.049 A 1.945 1.945 0 0 1 504.785 10.059 Q 504.785 11.841 504.742 18.368 A 7875.776 7875.776 0 0 1 504.736 19.287 A 953.429 953.429 0 0 1 504.735 20.944 Q 504.73 23.53 504.712 26.941 A 2452.699 2452.699 0 0 1 504.712 27.051 A 5303.51 5303.51 0 0 0 504.694 30.801 Q 504.678 34.152 504.663 38.257 A 13396.799 13396.799 0 0 0 504.642 44.41 Q 504.631 47.572 504.621 51.113 A 24037.655 24037.655 0 0 0 504.614 53.516 A 5767.215 5767.215 0 0 0 504.598 61.597 Q 504.592 65.724 504.59 70.293 A 9768.116 9768.116 0 0 0 504.59 73.389 A 46.817 46.817 0 0 0 507.106 73.834 A 34.129 34.129 0 0 0 509.399 74.097 A 61.205 61.205 0 0 0 511.212 74.214 Q 512.043 74.254 512.791 74.264 A 36.174 36.174 0 0 0 513.281 74.268 A 35.308 35.308 0 0 0 514.46 74.249 Q 514.998 74.231 515.481 74.195 A 20.57 20.57 0 0 0 515.796 74.17 A 73.304 73.304 0 0 0 516.575 74.097 Q 516.881 74.066 517.157 74.036 A 37.746 37.746 0 0 0 517.676 73.975 A 33.828 33.828 0 0 0 518.301 73.865 Q 518.608 73.808 518.878 73.75 A 17.528 17.528 0 0 0 519.189 73.682 Z M 562.646 14.063 A 29.307 29.307 0 0 0 557.142 14.555 A 21.769 21.769 0 0 0 551.587 16.382 A 22.493 22.493 0 0 0 543.75 22.656 A 26.294 26.294 0 0 0 539.606 30.252 A 30.684 30.684 0 0 0 539.087 31.86 A 38.776 38.776 0 0 0 537.573 41.513 A 43.797 43.797 0 0 0 537.549 42.969 A 36.662 36.662 0 0 0 538.56 51.708 A 31.84 31.84 0 0 0 540.137 56.494 Q 542.725 62.646 547.241 67.09 A 32.006 32.006 0 0 0 557.91 73.999 A 34.852 34.852 0 0 0 569.242 76.416 A 40.582 40.582 0 0 0 571.24 76.465 A 20.76 20.76 0 0 0 575.403 76.063 A 17.006 17.006 0 0 0 578.32 75.195 Q 581.494 73.926 583.984 71.753 A 22.881 22.881 0 0 0 588.306 66.675 A 31.417 31.417 0 0 0 591.309 60.498 A 39.549 39.549 0 0 0 593.066 53.784 A 40.467 40.467 0 0 0 593.643 47.891 A 36.899 36.899 0 0 0 593.652 47.07 A 37.352 37.352 0 0 0 592.281 36.849 A 34.262 34.262 0 0 0 591.406 34.18 A 31.967 31.967 0 0 0 585.811 24.557 A 30.496 30.496 0 0 0 585.059 23.706 A 29.919 29.919 0 0 0 575.244 16.65 A 29.331 29.331 0 0 0 565.187 14.153 A 34.983 34.983 0 0 0 562.646 14.063 Z M 30.908 23.486 Q 27.441 31.055 24.365 37.671 Q 21.289 44.287 18.506 50.781 A 443.124 443.124 0 0 0 24.78 50.598 A 339.344 339.344 0 0 0 30.518 50.342 A 341.108 341.108 0 0 0 35.73 50.024 A 250.884 250.884 0 0 0 40.43 49.658 A 318.883 318.883 0 0 1 37.427 42.065 A 580.727 580.727 0 0 1 36.035 38.373 A 494.561 494.561 0 0 1 34.741 34.863 A 379.146 379.146 0 0 1 33.557 31.567 A 297.779 297.779 0 0 1 32.495 28.516 Q 31.494 25.586 30.908 23.486 Z M 248.047 23.486 Q 244.58 31.055 241.504 37.671 Q 238.428 44.287 235.645 50.781 A 443.124 443.124 0 0 0 241.919 50.598 A 339.344 339.344 0 0 0 247.656 50.342 A 341.108 341.108 0 0 0 252.869 50.024 A 250.884 250.884 0 0 0 257.568 49.658 A 318.883 318.883 0 0 1 254.565 42.065 A 580.727 580.727 0 0 1 253.174 38.373 A 494.561 494.561 0 0 1 251.88 34.863 A 379.146 379.146 0 0 1 250.696 31.567 A 297.779 297.779 0 0 1 249.634 28.516 Q 248.633 25.586 248.047 23.486 Z" vector-effect="non-scaling-stroke"/></g></svg>