<?xml version="1.0" standalone="no"?>
<!DOCTYPE svg PUBLIC "-//W3C//DTD SVG 20010904//EN"
 "http://www.w3.org/TR/2001/REC-SVG-20010904/DTD/svg10.dtd">
<svg version="1.0" xmlns="http://www.w3.org/2000/svg"
 width="300.000000pt" height="259.000000pt" viewBox="0 0 300.000000 259.000000"
 preserveAspectRatio="xMidYMid meet">
<metadata>
Created by potrace 1.10, written by Peter Selinger 2001-2011
</metadata>
<g transform="translate(0.000000,259.000000) scale(0.100000,-0.100000)"
fill="#000000" stroke="none">
<path d="M1115 2420 c-159 -93 -300 -181 -312 -195 l-23 -26 0 -390 0 -389 32
-34 c40 -41 640 -386 683 -392 24 -4 67 16 230 111 110 64 212 129 228 145 23
26 27 38 27 93 0 54 -4 67 -24 86 -18 17 -30 21 -48 16 -12 -4 -110 -57 -216
-117 l-192 -110 -253 145 -252 146 -3 292 c-2 208 1 296 9 305 18 22 482 284
502 284 10 0 104 -49 209 -110 106 -60 202 -110 214 -110 36 0 54 36 54 106 0
45 -5 68 -19 86 -11 13 -93 66 -183 118 -90 51 -164 97 -166 102 -2 4 -27 8
-55 8 l-51 0 217 -122 216 -123 1 -72 c0 -40 -2 -73 -4 -73 -2 0 -98 54 -212
120 -115 66 -214 120 -220 120 -13 0 -522 -286 -542 -305 -11 -10 -13 -79 -13
-330 0 -175 2 -319 3 -320 2 -1 126 -72 275 -158 l273 -157 197 114 c109 62
208 118 221 125 22 12 22 11 22 -61 l0 -73 -216 -123 c-118 -68 -221 -122
-229 -120 -7 2 -162 89 -344 193 l-331 190 0 396 0 396 23 10 c12 6 164 92
337 192 298 172 312 181 270 180 -39 -1 -83 -23 -335 -169z"/>
<path d="M1395 2304 c-44 -26 -93 -54 -110 -64 -16 -9 -72 -41 -123 -70 -51
-29 -103 -66 -117 -82 -23 -27 -25 -38 -25 -128 0 -54 5 -111 10 -126 8 -19 8
-30 0 -38 -6 -6 -10 -58 -10 -123 l0 -113 33 -34 c43 -46 412 -256 449 -256
18 0 106 45 239 121 160 93 213 129 225 151 13 24 15 53 10 142 -2 61 -5 116
-4 121 0 6 2 66 5 134 l4 124 -27 28 c-38 40 -423 259 -454 259 -14 0 -61 -21
-105 -46z m368 -136 l177 -101 0 -124 0 -123 -62 38 -62 38 3 46 2 46 -138 79
c-76 44 -148 85 -159 93 -19 12 -35 5 -177 -76 -226 -130 -227 -129 55 -290
117 -67 213 -125 215 -130 1 -5 -24 -23 -57 -41 l-59 -32 -221 127 -220 127 0
110 0 110 222 127 221 127 41 -25 c23 -13 121 -70 219 -126z m-123 -122 c91
-53 126 -79 128 -95 2 -11 -1 -21 -6 -21 -5 0 -61 29 -123 65 -63 36 -125 65
-139 65 -42 0 -150 -76 -150 -106 0 -24 58 -66 235 -167 131 -76 180 -109 180
-122 0 -13 -36 -40 -125 -92 -69 -40 -132 -72 -140 -72 -8 0 -71 33 -140 72
-93 54 -126 79 -128 95 -2 12 1 22 6 22 5 0 61 -29 123 -65 63 -36 124 -65
137 -65 34 0 119 47 138 76 15 21 15 28 4 50 -11 19 -98 84 -114 84 -10 0
-290 167 -293 175 -1 6 1 15 5 22 10 16 243 151 262 152 8 0 71 -33 140 -73z
m93 -152 l207 -119 0 -112 0 -111 -220 -126 -220 -126 -220 127 -220 128 0
122 0 123 63 -38 c62 -38 62 -39 65 -88 l3 -50 154 -87 c84 -48 155 -87 158
-87 2 0 73 40 158 89 149 86 154 90 157 124 l3 34 -220 127 c-122 70 -221 129
-221 131 0 11 109 65 126 62 11 -2 113 -57 227 -123z"/>
<path d="M2036 2275 c-10 -16 -16 -46 -16 -88 0 -56 3 -66 28 -89 38 -36 93
-68 118 -68 39 0 54 30 54 106 0 64 -3 73 -27 96 -39 37 -94 68 -119 68 -12 0
-29 -11 -38 -25z m86 -37 c29 -17 54 -32 56 -33 7 -5 7 -145 1 -145 -4 0 -32
15 -63 33 l-56 32 0 73 c0 39 2 72 5 72 3 0 28 -14 57 -32z"/>
<path d="M2042 2007 c-22 -23 -22 -28 -22 -333 0 -264 2 -313 16 -332 8 -12
24 -22 35 -22 28 0 97 37 125 67 24 26 24 26 24 282 0 287 1 281 -72 324 -67
38 -81 40 -106 14z m139 -90 c0 -4 -1 -119 -1 -255 l0 -249 -52 -29 c-29 -16
-56 -30 -60 -32 -5 -2 -8 143 -8 322 l0 326 61 -38 c34 -20 61 -41 60 -45z"/>
<path d="M42 843 c-7 -3 -19 -18 -27 -33 -22 -42 -21 -415 0 -488 22 -73 70
-132 134 -165 54 -27 58 -27 240 -27 l185 0 27 26 27 25 25 -25 c36 -36 113
-37 154 -2 l28 24 28 -24 c21 -18 40 -24 75 -24 88 1 102 30 102 216 0 74 3
134 8 134 4 0 104 -75 222 -165 118 -91 223 -168 234 -171 11 -4 26 2 40 15
19 19 21 35 25 143 l3 122 33 -70 c39 -83 106 -153 184 -191 49 -25 68 -28
151 -28 85 0 101 3 153 29 69 35 149 117 179 183 19 42 23 71 28 233 3 102 9
184 13 183 12 -3 207 -260 207 -273 0 -6 -45 -69 -100 -140 -120 -154 -127
-170 -96 -199 18 -17 35 -21 88 -21 37 0 74 3 82 6 9 3 48 46 86 95 39 49 73
89 75 89 3 0 32 -35 66 -78 85 -107 91 -112 172 -112 142 0 144 34 11 203 -53
67 -100 132 -106 144 -10 20 1 38 96 158 107 137 124 173 94 203 -12 12 -143
17 -172 6 -9 -3 -48 -46 -87 -95 -39 -49 -72 -89 -74 -89 -2 0 -34 38 -70 85
-37 47 -75 90 -85 95 -30 16 -152 12 -178 -6 -20 -14 -24 -14 -44 0 -14 10
-44 16 -79 16 -50 0 -60 -3 -78 -26 -19 -25 -21 -40 -21 -204 0 -167 -1 -179
-23 -211 -12 -19 -42 -44 -67 -57 -98 -50 -205 3 -230 114 -5 21 -10 107 -10
190 0 137 -2 152 -20 172 -30 31 -124 32 -157 0 l-23 -21 -23 21 c-18 17 -36
22 -78 22 -91 0 -93 -4 -99 -181 -3 -88 -9 -154 -15 -156 -5 -1 -104 69 -220
157 -115 89 -220 163 -233 167 -16 4 -30 -1 -46 -16 l-22 -21 -24 25 c-20 21
-33 25 -80 25 -96 0 -94 4 -100 -302 l-5 -260 -27 21 c-24 19 -39 21 -191 21
-144 0 -166 2 -180 18 -13 15 -16 53 -19 239 -4 262 -4 264 -97 262 -31 0 -62
-3 -69 -6z m128 -272 l5 -242 25 -19 c23 -18 43 -20 208 -20 l182 0 0 -60 0
-60 -187 0 c-178 0 -191 2 -240 24 -36 17 -60 38 -80 67 l-28 42 -3 256 -3
256 58 -1 58 -2 5 -241z m620 -78 l0 -323 -60 0 -60 0 0 323 0 322 60 0 60 0
0 -322z m440 54 l175 -134 3 201 2 201 58 -1 57 -2 3 -321 c1 -176 0 -321 -4
-321 -3 0 -22 13 -42 30 -77 63 -479 370 -484 370 -2 0 -2 -90 0 -200 l3 -200
-60 0 -61 0 0 325 0 324 88 -69 c48 -38 166 -129 262 -203z m500 117 c0 -83 5
-175 10 -205 36 -188 287 -231 378 -64 14 24 18 69 22 224 l5 193 58 2 57 1 0
-192 c0 -169 -2 -199 -20 -247 -27 -72 -86 -137 -157 -172 -50 -25 -70 -29
-143 -29 -73 0 -93 4 -142 28 -69 34 -140 109 -164 175 -13 36 -18 90 -22 229
-2 101 -2 189 1 195 3 8 25 13 61 13 l56 0 0 -151z m700 146 l55 0 84 -110
c47 -61 87 -107 91 -103 4 4 42 53 85 108 l77 100 77 6 c42 3 77 5 79 3 2 -1
-53 -74 -122 -163 l-125 -160 116 -148 c64 -81 120 -154 126 -160 7 -10 -8
-13 -69 -13 l-79 1 -79 105 c-44 58 -83 107 -87 109 -3 3 -44 -44 -89 -103
l-82 -107 -79 -5 c-43 -3 -79 -4 -79 -2 0 2 56 75 125 163 l125 159 -125 160
c-69 89 -125 163 -125 167 0 3 10 3 23 -1 12 -3 47 -6 77 -6z"/>
</g>
</svg>
