<svg width="206" height="49.002" viewBox="0 0 206 49.002" xmlns="http://www.w3.org/2000/svg"><g id="svgGroup" stroke-linecap="round" fill-rule="evenodd" font-size="9pt" stroke="#000" stroke-width="0.25mm" fill="#000" style="stroke:#000;stroke-width:0.25mm;fill:#000"><path d="M 35 42.001 L 35 49.001 L 0 49.001 L 0 14.001 L 7 7.001 L 0 7.001 L 0 0.001 L 35 0.001 L 35 7.001 L 8 7.001 L 8 27.001 L 14 21.001 L 35 21.001 L 35 28.001 L 8 28.001 L 8 42.001 L 35 42.001 Z M 188.1 23.501 L 206 49.001 L 196.6 49.001 L 182.7 29.001 L 181.7 29.001 L 168.6 49.001 L 159 49.001 L 177.1 23.501 L 160 0.001 L 169.6 0.001 L 182.4 18.901 L 183.4 18.901 L 195.6 0.001 L 205 0.001 L 188.1 23.501 Z M 92 28.001 L 92 42.001 A 6.737 6.737 0 0 1 90.014 46.887 A 8.142 8.142 0 0 1 89.95 46.951 A 6.736 6.736 0 0 1 85.09 49 A 8.15 8.15 0 0 1 85 49.001 L 50 49.001 L 50 14.001 L 57 7.001 L 50 7.001 L 50 0.001 L 78 0.001 A 6.737 6.737 0 0 1 82.886 1.987 A 8.142 8.142 0 0 1 82.95 2.051 A 6.736 6.736 0 0 1 84.999 6.91 A 8.15 8.15 0 0 1 85 7.001 L 85 21.001 L 85.2 21.001 A 6.73 6.73 0 0 1 87.976 21.563 A 6.526 6.526 0 0 1 90.05 23.051 Q 92 25.101 92 28.001 Z M 149.5 7.001 L 149.5 42.001 A 6.737 6.737 0 0 1 147.514 46.887 A 8.142 8.142 0 0 1 147.45 46.951 A 6.736 6.736 0 0 1 142.59 49 A 8.15 8.15 0 0 1 142.5 49.001 L 114.5 49.001 A 6.737 6.737 0 0 1 109.614 47.014 A 8.142 8.142 0 0 1 109.55 46.951 A 6.736 6.736 0 0 1 107.501 42.091 A 8.15 8.15 0 0 1 107.5 42.001 L 107.5 7.001 A 6.737 6.737 0 0 1 109.486 2.115 A 8.142 8.142 0 0 1 109.55 2.051 A 6.736 6.736 0 0 1 114.41 0.001 A 8.15 8.15 0 0 1 114.5 0.001 L 142.5 0.001 A 6.737 6.737 0 0 1 147.386 1.987 A 8.142 8.142 0 0 1 147.45 2.051 A 6.736 6.736 0 0 1 149.499 6.91 A 8.15 8.15 0 0 1 149.5 7.001 Z M 115.5 42.001 L 141.5 42.001 L 141.5 7.001 L 115.5 7.001 L 115.5 42.001 Z M 58 42.001 L 84 42.001 L 84 28.001 L 58 28.001 L 58 42.001 Z M 64 21.001 L 77 21.001 L 77 7.001 L 58 7.001 L 58 27.001 L 64 21.001 Z" vector-effect="non-scaling-stroke"/></g></svg>