<?xml version="1.0" standalone="no"?>
<!DOCTYPE svg PUBLIC "-//W3C//DTD SVG 20010904//EN"
 "http://www.w3.org/TR/2001/REC-SVG-20010904/DTD/svg10.dtd">
<svg version="1.0" xmlns="http://www.w3.org/2000/svg"
 width="272.000000pt" height="60.000000pt" viewBox="0 0 272.000000 60.000000"
 preserveAspectRatio="xMidYMid meet">
<metadata>
Created by potrace 1.10, written by Peter Selinger 2001-2011
</metadata>
<g transform="translate(0.000000,60.000000) scale(0.100000,-0.100000)"
fill="#000000" stroke="none">
<path d="M243 590 c-229 -46 -315 -329 -151 -497 182 -186 502 -54 502 207 -1
184 -172 326 -351 290z m23 -25 c-1 -9 -6 -16 -12 -16 -5 0 -15 -6 -22 -11 -9
-8 -16 -8 -24 0 -13 13 0 35 18 28 7 -3 16 -1 19 4 10 15 23 12 21 -5z m155
-20 c5 4 6 -2 2 -12 -6 -15 -4 -16 9 -5 14 11 17 10 23 -8 3 -11 11 -17 16
-14 16 10 50 -31 37 -44 -8 -8 -19 -2 -40 19 -16 16 -33 29 -36 29 -18 1 -43
30 -36 41 6 10 9 10 12 1 2 -7 8 -10 13 -7z m-271 -30 c0 -9 -6 -12 -17 -8
-11 4 -14 3 -9 -6 4 -6 5 -19 2 -28 -5 -13 -9 -13 -23 -2 -14 12 -15 11 -9 -9
5 -15 4 -21 -6 -19 -7 2 -10 2 -5 0 15 -9 6 -22 -10 -16 -16 6 -16 5 -5 -10
12 -14 11 -16 -7 -14 -26 2 -26 -1 5 48 17 27 30 39 40 35 9 -3 12 -2 9 5 -7
11 12 39 26 39 5 0 9 -7 9 -15z m238 -1 c153 -63 191 -267 71 -381 -36 -34
-95 -63 -129 -63 -11 0 -20 -4 -20 -10 0 -5 5 -10 10 -10 6 0 10 -6 10 -14 0
-14 -28 -15 -90 -3 -28 5 -80 29 -80 38 0 13 18 20 25 9 8 -13 25 -13 25 0 0
6 -6 10 -13 10 -20 0 -94 81 -112 122 -33 80 -13 182 48 247 64 67 171 90 255
55z m-332 -176 c-3 -13 -5 -26 -5 -30 -1 -5 -8 -8 -16 -8 -18 0 -20 20 -2 21
9 0 9 2 0 5 -15 7 -5 34 13 34 9 0 12 -8 10 -22z m521 -38 c1 -11 -4 -20 -11
-20 -8 0 -16 9 -19 20 -4 14 0 20 12 20 10 0 17 -8 18 -20z m-511 -77 c4 -10
8 -21 8 -26 1 -4 14 -23 30 -43 22 -27 25 -38 16 -47 -9 -9 -15 -7 -26 8 -8
11 -12 25 -10 31 2 6 -3 11 -12 10 -9 0 -17 6 -17 14 0 8 -4 18 -10 22 -6 5
-4 8 5 8 12 1 11 3 -3 11 -9 6 -15 14 -12 20 9 14 22 11 31 -8z m504 -4 c0 -6
-9 -13 -21 -16 -14 -4 -17 -8 -9 -13 18 -11 3 -30 -18 -23 -14 5 -15 3 -4 -8
19 -20 14 -31 -10 -23 -20 6 -21 5 -10 -9 15 -17 3 -30 -17 -18 -10 7 -6 18
18 51 17 24 31 49 31 57 0 7 9 13 20 13 11 0 20 -5 20 -11z m-137 -162 c-3 -4
-11 -6 -19 -3 -8 3 -14 1 -14 -4 0 -14 -41 -23 -53 -11 -7 7 -2 13 19 21 16 5
36 14 44 19 16 9 33 -6 23 -22z"/>
<path d="M260 435 c-25 -49 -31 -72 -27 -99 5 -34 5 -34 -38 -40 -24 -4 -49
-14 -56 -22 -31 -37 78 -114 161 -114 59 1 121 29 150 70 20 28 21 33 8 47 -9
8 -33 17 -56 20 -40 5 -40 6 -35 39 4 27 -2 50 -27 99 -18 36 -36 65 -40 65
-4 0 -22 -29 -40 -65z m69 -5 c29 -51 30 -110 2 -152 l-21 -33 0 29 c0 16 6
34 14 40 9 7 12 25 9 54 -5 38 -8 42 -33 42 -25 0 -28 -4 -33 -42 -3 -29 0
-47 9 -54 8 -6 14 -24 14 -40 l0 -29 -21 33 c-28 42 -27 101 2 152 13 22 26
40 29 40 3 0 16 -18 29 -40z m-69 -160 c10 -19 8 -20 -42 -20 -65 0 -97 15
-52 25 16 4 34 8 39 10 26 9 45 3 55 -15z m184 3 c32 -9 -3 -23 -62 -23 -50 0
-52 1 -41 21 11 21 38 22 103 2z m-115 -54 c17 -6 31 -14 31 -19 0 -12 -56
-20 -90 -13 -37 7 -38 18 -2 31 15 6 27 11 28 11 1 1 15 -4 33 -10z"/>
<path d="M210 131 c0 -15 23 -28 65 -36 47 -10 76 -7 90 7 7 7 -2 8 -27 4 -24
-4 -38 -3 -38 4 0 5 -18 10 -41 10 -24 0 -38 4 -34 10 3 6 1 10 -4 10 -6 0
-11 -4 -11 -9z"/>
<path d="M1589 404 c-24 -59 -50 -120 -57 -135 -11 -27 -11 -29 12 -29 18 0
25 8 32 33 9 29 13 32 56 35 45 3 47 2 59 -32 10 -27 19 -36 36 -36 22 0 22 1
-14 83 -19 45 -45 106 -57 134 l-22 53 -45 -106z m69 -60 c-4 -3 -17 -4 -30
-2 -24 3 -24 4 -10 38 l14 35 16 -32 c9 -18 13 -35 10 -39z"/>
<path d="M2319 404 c-24 -59 -50 -120 -57 -135 -11 -27 -11 -29 12 -29 18 0
25 8 32 33 9 29 13 32 56 35 45 3 47 2 59 -32 10 -27 19 -36 36 -36 22 0 22 1
-14 83 -19 45 -45 106 -57 134 l-22 53 -45 -106z m69 -60 c-4 -3 -17 -4 -30
-2 -24 3 -24 4 -10 38 l14 35 16 -32 c9 -18 13 -35 10 -39z"/>
<path d="M720 370 c0 -123 1 -130 20 -130 19 0 20 7 20 130 0 123 -1 130 -20
130 -19 0 -20 -7 -20 -130z"/>
<path d="M830 370 c0 -123 1 -130 20 -130 19 0 20 7 20 130 0 123 -1 130 -20
130 -19 0 -20 -7 -20 -130z"/>
<path d="M925 491 c-3 -2 -5 -13 -5 -23 0 -16 6 -19 33 -16 l32 3 0 -108 c0
-104 1 -107 23 -107 21 0 22 3 22 110 l0 110 30 -6 c27 -6 30 -4 30 18 0 25
-1 25 -80 25 -44 0 -83 -3 -85 -6z"/>
<path d="M1230 370 c0 -123 1 -130 20 -130 18 0 20 7 20 72 l0 72 43 -62 c23
-34 44 -61 47 -62 3 0 19 23 35 51 45 77 50 76 47 -2 -4 -68 -3 -69 22 -69
l26 0 0 131 c0 71 -4 128 -8 125 -4 -2 -33 -41 -63 -85 -29 -44 -57 -80 -60
-81 -3 0 -32 38 -64 85 -32 47 -60 85 -62 85 -2 0 -3 -58 -3 -130z"/>
<path d="M1790 371 l0 -131 51 0 c96 0 153 47 151 127 -1 80 -42 118 -139 129
l-63 7 0 -132z m130 59 c26 -18 36 -55 26 -96 -7 -27 -53 -54 -91 -54 -25 0
-25 0 -25 90 l0 90 33 -6 c17 -3 43 -14 57 -24z"/>
<path d="M2050 370 c0 -123 1 -130 20 -130 17 0 20 7 20 45 0 39 3 45 20 45
14 0 30 -15 48 -45 21 -35 33 -44 55 -45 l28 0 -31 44 c-34 51 -36 59 -15 76
18 15 20 80 2 104 -13 18 -71 35 -119 36 l-28 0 0 -130z m94 80 c18 -6 26 -17
26 -33 0 -31 -18 -47 -52 -47 -27 0 -28 2 -28 45 0 49 7 53 54 35z"/>
<path d="M2561 489 c-80 -32 -61 -108 34 -139 18 -6 36 -17 39 -25 13 -35 -59
-59 -104 -35 -15 8 -20 6 -25 -11 -9 -28 -3 -32 65 -37 53 -4 61 -2 84 21 35
35 33 69 -5 101 -17 14 -36 26 -44 26 -7 0 -23 9 -36 20 -24 20 -24 20 -4 35
14 11 31 14 56 10 27 -5 38 -3 42 9 3 8 3 17 -1 20 -18 11 -79 14 -101 5z"/>
<path d="M720 125 c0 -59 15 -59 16 0 0 25 -3 45 -8 45 -4 0 -8 -20 -8 -45z"/>
<path d="M856 155 c4 -10 0 -15 -14 -15 -11 0 -22 -7 -26 -15 -9 -25 4 -45 30
-45 22 0 24 4 24 45 0 25 -4 45 -10 45 -5 0 -7 -7 -4 -15z m2 -42 c-5 -25 -28
-28 -28 -4 0 12 6 21 16 21 9 0 14 -7 12 -17z"/>
<path d="M1070 125 c0 -25 5 -45 10 -45 6 0 10 20 10 45 0 25 -4 45 -10 45 -5
0 -10 -20 -10 -45z"/>
<path d="M1622 153 c-5 -10 -5 -31 -1 -48 7 -30 7 -30 8 -3 0 14 7 29 14 31 9
4 8 6 -2 6 -11 1 -11 4 -1 16 8 10 9 15 2 15 -6 0 -15 -8 -20 -17z"/>
<path d="M1680 160 c0 -5 6 -10 14 -10 10 0 16 -13 19 -37 l4 -38 1 38 c1 25
7 37 17 37 8 0 15 5 15 10 0 6 -16 10 -35 10 -19 0 -35 -4 -35 -10z"/>
<path d="M1880 125 c0 -25 4 -45 10 -45 5 0 9 10 7 21 -1 12 4 24 11 26 7 3
12 -5 12 -21 0 -14 4 -26 8 -26 5 0 7 14 4 30 -3 21 -10 30 -23 30 -12 0 -16
5 -13 15 4 8 1 15 -5 15 -6 0 -11 -19 -11 -45z"/>
<path d="M2080 125 c0 -25 5 -45 10 -45 6 0 10 20 10 45 0 25 -4 45 -10 45 -5
0 -10 -20 -10 -45z"/>
<path d="M2339 168 c-5 -25 -3 -88 3 -88 4 0 8 12 8 26 l0 26 19 -23 18 -23
17 30 17 29 -5 -32 c-3 -19 -1 -33 4 -33 6 0 10 20 10 45 0 53 -11 57 -32 13
l-15 -33 -17 33 c-14 27 -24 39 -27 30z"/>
<path d="M2546 155 c4 -10 0 -15 -14 -15 -11 0 -22 -7 -26 -15 -9 -25 4 -45
30 -45 22 0 24 4 24 45 0 25 -4 45 -10 45 -5 0 -7 -7 -4 -15z m2 -42 c-5 -25
-28 -28 -28 -4 0 12 6 21 16 21 9 0 14 -7 12 -17z"/>
<path d="M1229 151 c-10 -28 3 -71 20 -70 10 0 11 2 4 6 -18 7 -16 43 2 43 9
0 15 -9 15 -25 0 -14 4 -25 8 -25 5 0 7 13 4 30 -3 21 -10 30 -22 30 -10 0
-20 6 -22 13 -4 9 -6 8 -9 -2z"/>
<path d="M1305 148 c-3 -9 -5 -27 -3 -40 3 -20 9 -23 51 -26 46 -2 47 -2 47
28 0 16 -4 30 -10 30 -5 0 -10 -11 -10 -25 0 -14 -4 -25 -10 -25 -5 0 -10 11
-10 25 0 18 -5 25 -19 25 -11 0 -21 6 -24 13 -3 8 -7 7 -12 -5z"/>
<path d="M1415 148 c-4 -9 -5 -27 -3 -40 3 -20 9 -23 48 -24 25 -1 37 0 28 3
-25 6 -22 23 3 23 35 0 15 25 -20 26 -18 1 -37 7 -41 15 -7 11 -10 10 -15 -3z"/>
<path d="M750 110 c0 -16 4 -30 10 -30 5 0 9 10 7 21 -1 12 4 24 11 26 7 3 12
-5 12 -21 0 -14 4 -26 8 -26 5 0 7 13 4 30 -3 24 -9 30 -28 30 -20 0 -24 -5
-24 -30z"/>
<path d="M880 110 c0 -16 5 -30 10 -30 6 0 10 14 10 30 0 17 -4 30 -10 30 -5
0 -10 -13 -10 -30z"/>
<path d="M928 134 c17 -8 15 -24 -3 -24 -8 0 -15 -7 -15 -15 0 -9 10 -15 26
-15 22 0 25 4 22 27 -2 19 -9 29 -23 30 -11 2 -14 0 -7 -3z"/>
<path d="M970 111 c0 -17 5 -31 10 -31 6 0 10 11 10 25 0 14 5 25 10 25 6 0
10 -11 10 -25 0 -14 5 -25 11 -25 6 0 9 12 7 28 -2 21 -9 28 -30 30 -25 3 -28
0 -28 -27z"/>
<path d="M1100 111 c0 -17 5 -31 10 -31 6 0 10 11 10 25 0 14 5 25 10 25 6 0
10 -11 10 -25 0 -14 5 -25 11 -25 6 0 9 12 7 28 -2 21 -9 28 -30 30 -25 3 -28
0 -28 -27z"/>
<path d="M1170 126 c0 -8 8 -17 18 -21 16 -7 15 -8 -3 -15 -19 -8 -19 -9 3 -9
26 -1 30 26 5 36 -15 6 -15 7 3 14 17 7 17 8 -3 8 -13 1 -23 -5 -23 -13z"/>
<path d="M1547 126 c-10 -26 4 -47 27 -44 15 2 21 10 21 28 0 29 -38 41 -48
16z"/>
<path d="M1757 126 c-11 -27 3 -46 32 -45 23 2 24 2 4 6 -29 6 -30 23 -2 23
26 0 20 24 -8 28 -11 2 -23 -4 -26 -12z"/>
<path d="M1824 125 c-10 -24 4 -45 28 -44 17 1 18 2 6 6 -10 2 -18 13 -18 23
0 10 8 21 18 23 12 4 11 5 -6 6 -12 0 -25 -6 -28 -14z"/>
<path d="M1951 108 c2 -31 2 -31 6 -5 5 33 24 31 35 -4 6 -22 7 -21 5 6 -2 23
-7 31 -24 33 -20 3 -23 -1 -22 -30z"/>
<path d="M2014 126 c-10 -26 4 -48 28 -44 17 2 23 10 23 28 0 18 -6 26 -23 28
-13 2 -25 -3 -28 -12z"/>
<path d="M2114 125 c-9 -23 3 -45 25 -45 10 0 21 7 25 15 8 23 -4 45 -25 45
-11 0 -22 -7 -25 -15z"/>
<path d="M2182 100 c-1 -36 2 -40 24 -40 15 0 24 6 24 15 0 8 -7 15 -15 15
-12 0 -12 3 3 18 16 17 17 17 28 -2 7 -11 10 -26 7 -33 -11 -30 8 -10 27 27
11 22 16 40 10 40 -6 0 -14 -10 -19 -22 l-8 -23 -7 23 c-6 17 -15 22 -40 22
-32 0 -34 -1 -34 -40z"/>
<path d="M2450 130 c0 -5 7 -7 15 -4 10 4 15 0 15 -15 0 -12 -5 -21 -11 -21
-5 0 -7 5 -3 11 4 7 2 10 -5 8 -21 -7 -17 -24 7 -27 19 -3 22 1 22 27 0 24 -4
31 -20 31 -11 0 -20 -4 -20 -10z"/>
<path d="M2570 110 c0 -16 5 -30 10 -30 6 0 10 11 10 24 0 13 6 27 13 29 6 3
2 6 -10 6 -19 1 -23 -4 -23 -29z"/>
<path d="M2620 130 c0 -5 7 -7 15 -4 10 4 15 0 15 -15 0 -12 -5 -21 -11 -21
-5 0 -7 5 -3 11 4 7 1 10 -6 7 -26 -8 -22 -28 4 -28 22 0 26 4 26 30 0 23 -4
30 -20 30 -11 0 -20 -4 -20 -10z"/>
<path d="M2676 131 c-3 -5 1 -15 10 -22 14 -12 14 -14 -3 -20 -16 -7 -16 -8 4
-8 29 -1 40 19 17 32 -17 10 -17 11 1 18 19 7 19 8 -2 8 -12 1 -24 -3 -27 -8z"/>
</g>
</svg>
