<?xml version="1.0" standalone="no"?>
<!DOCTYPE svg PUBLIC "-//W3C//DTD SVG 20010904//EN"
 "http://www.w3.org/TR/2001/REC-SVG-20010904/DTD/svg10.dtd">
<svg version="1.0" xmlns="http://www.w3.org/2000/svg"
 width="300.000000pt" height="150.000000pt" viewBox="0 0 300.000000 150.000000"
 preserveAspectRatio="xMidYMid meet">
<metadata>
Created by potrace 1.10, written by Peter Selinger 2001-2011
</metadata>
<g transform="translate(0.000000,150.000000) scale(0.100000,-0.100000)"
fill="#000000" stroke="none">
<path d="M384 765 l1 -185 45 0 45 0 3 185 3 185 -49 0 -49 0 1 -185z m65 7
c-1 -130 -8 -176 -25 -159 -9 9 -18 261 -10 282 3 8 12 15 21 15 13 0 15 -19
14 -138z"/>
<path d="M510 915 c0 -35 0 -35 45 -35 45 0 45 0 45 35 0 35 0 35 -45 35 -45
0 -45 0 -45 -35z"/>
<path d="M635 898 c2 -29 3 -113 4 -185 l1 -133 40 0 40 0 2 170 c0 94 1 176
2 183 1 7 -16 13 -45 15 l-46 3 2 -53z m58 -133 c-2 -136 -6 -160 -24 -150
-10 7 -13 288 -2 298 3 4 11 3 17 -3 8 -6 11 -53 9 -145z"/>
<path d="M780 766 c0 -178 1 -186 20 -186 18 0 20 8 22 147 l3 147 101 -144
c61 -88 109 -146 120 -148 18 -3 19 7 19 183 l0 185 -24 0 -24 0 5 -140 c3
-78 2 -139 -3 -138 -4 2 -50 64 -102 138 -64 91 -101 136 -116 138 -21 3 -21
2 -21 -182z"/>
<path d="M510 715 l0 -135 45 0 45 0 0 135 0 135 -45 0 -45 0 0 -135z"/>
<path d="M1141 758 c1 -51 4 -104 8 -117 11 -39 56 -66 108 -65 39 1 51 6 75
33 27 30 28 35 28 136 0 98 -1 105 -20 105 -19 0 -20 -7 -20 -92 0 -103 -13
-141 -49 -146 -72 -11 -96 32 -89 159 5 77 4 79 -19 79 -23 0 -23 -2 -22 -92z"/>
<path d="M1430 715 c0 -134 0 -135 23 -135 21 0 23 4 22 52 0 74 21 75 70 3
28 -40 45 -55 62 -55 12 0 23 3 23 6 0 3 -17 26 -37 50 l-36 45 26 25 c28 26
36 69 17 104 -13 24 -62 40 -121 40 l-49 0 0 -135z m128 83 c7 -7 12 -21 12
-33 0 -31 -19 -45 -62 -45 l-38 0 0 45 0 45 38 0 c21 0 43 -5 50 -12z"/>
<path d="M1650 830 c0 -17 7 -20 40 -20 l40 0 0 -115 0 -115 26 0 26 0 -4 115
-3 115 47 0 c41 0 46 2 41 20 -5 18 -14 20 -109 20 -97 0 -104 -1 -104 -20z"/>
<path d="M1912 741 c3 -105 4 -112 30 -138 23 -22 36 -27 78 -27 42 0 55 5 78
27 26 26 27 33 30 137 4 106 3 110 -17 110 -20 0 -21 -5 -21 -89 0 -106 -10
-138 -45 -147 -72 -18 -97 21 -94 145 2 82 1 86 -20 89 -23 4 -23 3 -19 -107z"/>
<path d="M2200 715 c0 -127 1 -135 19 -135 17 0 20 8 23 52 4 73 24 74 72 3
29 -41 45 -55 63 -55 27 0 26 4 -19 61 -15 20 -28 40 -28 44 0 4 11 16 25 27
27 21 33 64 15 98 -13 24 -62 40 -121 40 l-49 0 0 -135z m128 83 c7 -7 12 -21
12 -33 0 -31 -19 -45 -62 -45 l-38 0 0 45 0 45 38 0 c21 0 43 -5 50 -12z"/>
<path d="M2448 715 l3 -135 85 0 c78 0 84 1 84 21 0 19 -4 20 -65 14 l-65 -7
0 46 0 46 50 0 c43 0 50 3 50 20 0 17 -7 20 -50 20 l-50 0 0 35 0 35 60 0 c53
0 60 2 60 20 0 18 -7 20 -82 20 l-83 0 3 -135z"/>
</g>
</svg>
