<?xml version="1.0" standalone="no"?>
<!DOCTYPE svg PUBLIC "-//W3C//DTD SVG 20010904//EN"
 "http://www.w3.org/TR/2001/REC-SVG-20010904/DTD/svg10.dtd">
<svg version="1.0" xmlns="http://www.w3.org/2000/svg"
 width="236.000000pt" height="300.000000pt" viewBox="0 0 236.000000 300.000000"
 preserveAspectRatio="xMidYMid meet">
<metadata>
Created by potrace 1.10, written by Peter Selinger 2001-2011
</metadata>
<g transform="translate(0.000000,300.000000) scale(0.100000,-0.100000)"
fill="#000000" stroke="none">
<path d="M1000 2590 c-84 -10 -162 -34 -207 -61 -57 -35 -73 -83 -73 -221 l0
-118 220 0 220 0 0 -30 0 -29 -347 -3 -348 -3 -45 -27 c-90 -53 -128 -116
-155 -254 -35 -186 -1 -418 76 -515 48 -61 98 -79 216 -79 l101 0 4 133 c3
124 5 136 32 182 35 60 76 99 136 128 42 20 63 22 336 27 l291 5 41 27 c22 15
54 49 69 75 l28 48 3 245 c4 290 0 313 -69 382 -66 66 -138 87 -323 92 -77 3
-170 1 -206 -4z m391 -30 c122 -35 194 -166 121 -218 -15 -11 -36 -22 -47 -25
-11 -2 -5 -3 14 -1 18 2 42 11 52 20 11 10 21 15 24 12 3 -3 6 -106 7 -229 2
-216 1 -225 -21 -264 -58 -100 -54 -99 -386 -105 l-281 -5 -67 -33 c-42 -21
-79 -48 -100 -75 -62 -76 -71 -102 -77 -232 l-5 -120 -70 -3 c-38 -2 -87 2
-107 8 -127 37 -202 315 -148 550 21 95 54 170 78 178 7 2 12 -6 12 -23 0 -46
36 -94 70 -95 9 0 3 10 -15 24 -25 20 -30 30 -29 67 1 36 8 48 37 75 46 43 85
46 455 42 244 -2 294 -5 302 -18 5 -8 11 -12 15 -9 3 3 -4 18 -16 32 -11 15
-18 31 -15 36 4 5 -4 21 -17 36 l-22 27 -177 -1 c-98 -1 -189 1 -203 5 -25 6
-25 8 -20 83 2 42 5 84 5 94 0 34 23 12 37 -35 17 -58 70 -108 116 -108 50 0
94 33 108 80 11 37 31 52 43 31 6 -10 104 -28 185 -34 29 -2 47 -1 40 3 -8 4
-50 11 -94 14 -75 7 -155 36 -155 57 0 5 -21 24 -46 44 -61 46 -109 48 -157 5
-46 -40 -61 -39 -53 2 12 62 74 98 200 119 67 10 361 3 407 -11z m-425 -123
c53 -46 19 -137 -51 -137 -77 0 -113 83 -60 135 31 32 75 32 111 2z m-51 -151
c19 0 43 8 55 19 11 10 20 13 20 7 0 -18 -42 -42 -75 -42 -33 0 -75 24 -75 42
0 6 9 3 20 -7 12 -11 36 -19 55 -19z"/>
<path d="M1321 2326 c10 -9 109 -14 104 -5 -4 5 -29 9 -57 9 -28 0 -49 -2 -47
-4z"/>
<path d="M618 1954 c-26 -8 -50 -20 -54 -26 -5 -7 -2 -9 9 -5 48 18 113 30
207 37 l105 7 -110 1 c-70 0 -127 -5 -157 -14z"/>
<path d="M1650 2003 c0 -113 -3 -134 -24 -179 -30 -65 -88 -119 -154 -144 -48
-18 -77 -20 -305 -20 -139 0 -267 -4 -286 -10 -58 -16 -109 -59 -136 -113 -25
-50 -25 -53 -25 -301 0 -226 2 -255 20 -293 34 -77 139 -134 290 -159 109 -18
148 -17 254 1 160 28 252 79 296 165 16 31 20 59 20 140 l0 100 -220 0 -220 0
0 30 0 30 354 0 c368 0 390 2 435 43 63 59 121 240 121 381 0 155 -58 355
-118 409 -36 33 -93 46 -199 47 l-103 0 0 -127z m212 97 c52 -15 98 -72 99
-125 0 -27 3 -34 8 -22 12 32 28 0 50 -103 30 -136 27 -287 -9 -375 -35 -90
-46 -113 -63 -138 -41 -60 -49 -61 -427 -65 l-345 -3 -24 -24 c-18 -17 -22
-29 -17 -49 l6 -26 224 0 223 0 -9 -52 c-6 -29 -11 -73 -12 -98 -3 -55 -26
-102 -65 -129 -40 -29 -49 -26 -18 5 37 37 46 123 17 159 -19 23 -65 45 -94
45 -34 0 -107 -30 -100 -41 3 -5 1 -24 -4 -42 -12 -42 7 -104 40 -129 14 -11
41 -18 68 -18 l45 0 -32 -20 c-51 -31 -154 -50 -266 -50 -156 1 -271 32 -345
95 -57 48 -63 69 -67 258 -6 284 11 391 68 427 17 10 19 10 13 -5 -12 -32 6
-36 25 -5 38 62 75 70 340 70 255 0 261 1 381 59 35 17 72 31 83 31 20 1 20 1
0 12 -11 6 -22 12 -24 14 -2 2 6 23 18 48 12 24 24 62 27 83 12 86 13 87 35
67 20 -18 20 -17 0 27 -12 24 -21 63 -21 87 l0 42 68 0 c37 0 84 -5 104 -10z
m-403 -1046 c41 -34 42 -75 2 -115 -31 -31 -58 -36 -94 -18 -21 10 -21 10 -3
-5 27 -22 68 -20 102 5 l29 21 -28 -26 c-45 -42 -137 -27 -135 22 0 9 -3 31
-7 49 -6 28 -3 37 23 63 38 37 70 38 111 4z"/>
<path d="M1661 1662 c-13 -31 -34 -68 -45 -81 l-21 -24 21 13 c27 16 76 105
72 129 -2 13 -11 0 -27 -37z"/>
</g>
</svg>
