<svg width="503.7" height="63.9" viewBox="0 0 503.7 63.9" xmlns="http://www.w3.org/2000/svg"><g id="svgGroup" stroke-linecap="round" fill-rule="evenodd" font-size="9pt" stroke="#000" stroke-width="0.25mm" fill="#000" style="stroke:#000;stroke-width:0.25mm;fill:#000"><path d="M 298.3 1 L 308.4 1 A 8.727 8.727 0 0 0 307.752 2.692 Q 306.942 5.516 306.542 11.162 A 121.556 121.556 0 0 0 306.4 13.5 Q 306.3 15.4 306.25 20.1 Q 306.2 24.8 306.2 32.4 L 306.2 50.7 A 186.804 186.804 0 0 0 306.296 53.878 Q 306.345 55.12 306.408 56.226 A 90.236 90.236 0 0 0 306.55 58.3 A 46.604 46.604 0 0 0 306.731 60.12 Q 306.956 61.994 307.3 63.3 L 298.9 63.3 A 17.928 17.928 0 0 0 299.188 61.99 Q 299.478 60.416 299.65 58.25 A 97.807 97.807 0 0 0 299.816 55.698 Q 299.877 54.555 299.923 53.281 A 194.947 194.947 0 0 0 300 50.6 L 300 32.6 L 300 8 A 25.018 25.018 0 0 1 299.221 10.538 Q 297.517 15.307 293 24.15 A 456.149 456.149 0 0 1 289.756 30.372 Q 284.45 40.375 276.5 54.4 Q 270.712 44.504 266.318 36.351 A 417.448 417.448 0 0 1 265.7 35.2 Q 256.762 18.543 254.03 11.327 A 28.01 28.01 0 0 1 253.1 8.5 L 253.1 32.6 L 253.1 50.6 Q 253.169 53.763 253.308 56.24 A 92.732 92.732 0 0 0 253.45 58.35 A 45.739 45.739 0 0 0 253.631 60.187 Q 253.832 61.865 254.129 63.032 A 12.445 12.445 0 0 0 254.2 63.3 L 246.1 63.3 Q 246.6 61.4 246.85 58.3 Q 247.022 56.169 247.123 53.376 A 192.686 192.686 0 0 0 247.2 50.7 L 247.2 32.4 L 247.2 20.1 Q 247.2 15.4 247.1 13.5 A 109.444 109.444 0 0 0 246.833 9.586 Q 246.272 3.188 245.1 1 L 254.9 1 L 276.4 42.1 L 298.3 1 Z M 386.7 1 L 395.2 1 A 17.928 17.928 0 0 0 394.912 2.31 Q 394.622 3.884 394.45 6.05 Q 394.278 8.216 394.177 11.067 A 200.469 200.469 0 0 0 394.1 13.8 A 63.664 63.664 0 0 1 394.113 13.461 Q 394.193 11.573 394.2 15.089 A 355.897 355.897 0 0 1 394.2 15.7 L 394.2 32.3 L 394.2 63.3 L 388.4 63.3 Q 383.8 56.7 379.7 50.8 Q 375.6 44.9 372.1 39.7 A 4018.453 4018.453 0 0 1 368.066 33.756 Q 362.338 25.3 358.55 19.6 Q 353.5 12 351.8 9 L 351.8 32.3 L 351.8 50.4 Q 351.869 53.563 352.008 56.063 A 96.825 96.825 0 0 0 352.15 58.2 A 48.471 48.471 0 0 0 352.331 60.073 Q 352.556 61.994 352.9 63.3 L 344.6 63.3 A 17.928 17.928 0 0 0 344.888 61.99 Q 345.178 60.416 345.35 58.25 Q 345.522 56.084 345.623 53.233 A 200.469 200.469 0 0 0 345.7 50.5 L 345.7 32.1 L 345.7 19.8 A 349.412 349.412 0 0 0 345.694 17.694 Q 345.68 15.374 345.632 14.031 A 37.03 37.03 0 0 0 345.6 13.3 Q 345.1 3.7 343.7 1 Q 353.101 1.099 353.101 1.002 A 0.003 0.003 0 0 0 353.1 1 Q 357.5 7 361.45 12.55 Q 365.4 18.1 369 23.3 Q 376.335 33.945 380.83 41.029 A 260.13 260.13 0 0 1 381.85 42.65 Q 386.5 50.1 387.8 53.2 L 387.8 32.2 L 387.8 16.55 Q 387.8 12.094 387.896 13.728 A 23.039 23.039 0 0 1 387.9 13.8 Q 387.825 7.015 387.181 3.185 A 19.668 19.668 0 0 0 386.7 1 Z M 447 10.4 L 442 10.4 L 441.8 8.8 A 0.471 0.471 0 0 0 441.759 8.622 Q 441.654 8.37 441.283 7.984 A 6.255 6.255 0 0 0 441.2 7.9 Q 440.842 7.274 436.002 7.208 A 88.362 88.362 0 0 0 434.8 7.2 L 416.3 7.2 Q 416.125 15.337 416.256 24.777 A 637.058 637.058 0 0 0 416.3 27.5 A 523.753 523.753 0 0 0 423.791 27.451 Q 438.619 27.237 441.3 26.1 L 441.3 34.7 A 15.285 15.285 0 0 0 439.068 34.213 Q 432.899 33.255 416.3 33.5 A 1261.206 1261.206 0 0 0 416.251 43.519 Q 416.245 49.419 416.288 55.719 A 1701.327 1701.327 0 0 0 416.3 57.3 L 437.4 57.3 A 38.043 38.043 0 0 0 439.267 57.258 Q 442.969 57.075 443.7 56.1 A 3.439 3.439 0 0 0 444.014 55.491 Q 444.384 54.581 444.6 53 L 449.5 53 A 128.956 128.956 0 0 0 449.348 55.634 Q 449.132 60.226 449.393 62.91 A 18.299 18.299 0 0 0 449.5 63.8 A 792.323 792.323 0 0 0 443.605 63.545 Q 440.816 63.435 438.33 63.36 A 472.559 472.559 0 0 0 438 63.35 Q 432.9 63.2 428.9 63.3 Q 425.8 63.4 420.75 63.55 A 7942.631 7942.631 0 0 1 416.688 63.67 Q 414.882 63.722 412.885 63.78 A 15017.348 15017.348 0 0 1 408.7 63.9 Q 409.551 61.093 409.678 39.19 A 1433.594 1433.594 0 0 0 409.7 30.9 Q 409.7 8.706 409.019 2.577 A 11.587 11.587 0 0 0 408.7 0.7 Q 414.693 1.058 424.048 1.256 A 806.878 806.878 0 0 0 426.3 1.3 Q 430.3 1.4 435.45 1.25 A 556.293 556.293 0 0 0 440.822 1.066 Q 443.659 0.956 446.797 0.809 A 901.826 901.826 0 0 0 447 0.8 A 22.923 22.923 0 0 0 446.829 2.456 Q 446.629 5.348 446.935 9.555 A 91.201 91.201 0 0 0 447 10.4 Z M 42.5 63.3 L 33.7 63.3 A 8.239 8.239 0 0 0 33.797 62.866 A 6.538 6.538 0 0 0 33.85 62.55 Q 33.9 62.2 33.9 61.7 A 25.296 25.296 0 0 0 33.154 55.794 Q 32.194 51.8 30 47.3 A 33.853 33.853 0 0 0 27.287 42.493 Q 25.611 40.054 23.69 38.41 A 13.991 13.991 0 0 0 18.7 35.6 Q 16.211 34.834 11.982 34.71 A 53.15 53.15 0 0 0 11.6 34.7 A 19.649 19.649 0 0 1 9.709 34.8 A 18.105 18.105 0 0 1 9.65 34.8 A 19.546 19.546 0 0 0 7.762 34.894 A 21.322 21.322 0 0 0 7.7 34.9 L 7.7 51.9 A 143.077 143.077 0 0 0 7.796 54.616 Q 7.894 56.769 8.05 58.55 A 40.888 40.888 0 0 0 8.272 60.549 Q 8.487 62.111 8.8 63.3 L 0 63.3 A 18.82 18.82 0 0 0 0.314 61.858 Q 0.586 60.352 0.75 58.35 Q 0.999 55.309 1.099 50.826 A 235.844 235.844 0 0 0 1.1 50.8 L 1.1 32.4 L 1.1 14 Q 1.031 10.769 0.892 8.246 A 95.27 95.27 0 0 0 0.75 6.1 A 48.471 48.471 0 0 0 0.569 4.227 Q 0.344 2.306 0 1 L 21.9 1 A 27.382 27.382 0 0 1 28.1 1.688 A 25.224 25.224 0 0 1 28.95 1.9 A 17.321 17.321 0 0 1 33.352 3.736 A 15.7 15.7 0 0 1 34.85 4.75 A 13.049 13.049 0 0 1 38.47 9.081 A 15.503 15.503 0 0 1 38.85 9.85 Q 40.162 12.7 40.287 16.655 A 26.761 26.761 0 0 1 40.3 17.5 Q 40.3 30.874 25.457 34.088 A 35.395 35.395 0 0 1 25.4 34.1 A 17.488 17.488 0 0 1 33.523 40.128 Q 39.438 47.613 42.5 63.3 Z M 503.7 63.3 L 494.9 63.3 A 8.239 8.239 0 0 0 494.997 62.866 A 6.538 6.538 0 0 0 495.05 62.55 Q 495.1 62.2 495.1 61.7 A 25.296 25.296 0 0 0 494.354 55.794 Q 493.394 51.8 491.2 47.3 A 33.853 33.853 0 0 0 488.487 42.493 Q 486.811 40.054 484.89 38.41 A 13.991 13.991 0 0 0 479.9 35.6 Q 477.411 34.834 473.182 34.71 A 53.15 53.15 0 0 0 472.8 34.7 A 19.649 19.649 0 0 1 470.909 34.8 A 18.105 18.105 0 0 1 470.85 34.8 A 19.546 19.546 0 0 0 468.962 34.894 A 21.322 21.322 0 0 0 468.9 34.9 L 468.9 51.9 A 143.077 143.077 0 0 0 468.996 54.616 Q 469.094 56.769 469.25 58.55 A 40.888 40.888 0 0 0 469.472 60.549 Q 469.687 62.111 470 63.3 L 461.2 63.3 A 18.82 18.82 0 0 0 461.514 61.858 Q 461.786 60.352 461.95 58.35 Q 462.199 55.309 462.299 50.826 A 235.844 235.844 0 0 0 462.3 50.8 L 462.3 32.4 L 462.3 14 Q 462.231 10.769 462.092 8.246 A 95.27 95.27 0 0 0 461.95 6.1 A 48.471 48.471 0 0 0 461.769 4.227 Q 461.544 2.306 461.2 1 L 483.1 1 A 27.382 27.382 0 0 1 489.3 1.688 A 25.224 25.224 0 0 1 490.15 1.9 A 17.321 17.321 0 0 1 494.552 3.736 A 15.7 15.7 0 0 1 496.05 4.75 A 13.049 13.049 0 0 1 499.67 9.081 A 15.503 15.503 0 0 1 500.05 9.85 Q 501.362 12.7 501.487 16.655 A 26.761 26.761 0 0 1 501.5 17.5 Q 501.5 30.874 486.657 34.088 A 35.395 35.395 0 0 1 486.6 34.1 A 17.488 17.488 0 0 1 494.723 40.128 Q 500.638 47.613 503.7 63.3 Z M 105 63.3 L 95.9 63.3 Q 95.302 60.567 90.691 47.545 A 1332.349 1332.349 0 0 0 89 42.8 L 63.9 42.8 Q 58.841 55.686 57.218 61.009 A 29.323 29.323 0 0 0 56.6 63.3 L 48.6 63.3 Q 53.5 53.6 73.5 0 L 80.6 0 Q 83.7 8.5 86.45 15.85 Q 89.2 23.2 91.6 29.5 Q 102.328 58.33 104.798 62.941 A 9.358 9.358 0 0 0 105 63.3 Z M 204 63.3 L 185.6 63.3 A 20.911 20.911 0 0 0 185.989 61.407 Q 186.363 59.1 186.5 55.8 A 80.232 80.232 0 0 0 186.602 53.504 Q 186.8 47.456 186.8 32.1 L 186.8 18.65 A 475.619 475.619 0 0 0 186.794 16.134 Q 186.775 12.6 186.7 10.5 Q 186.6 7.7 186.35 5.4 A 32.013 32.013 0 0 0 185.99 2.939 A 25.035 25.035 0 0 0 185.6 1.2 L 204.7 1.2 A 38.237 38.237 0 0 1 213.889 2.24 A 25.516 25.516 0 0 1 227.1 10 Q 234.6 18.4 234.6 33 A 33.174 33.174 0 0 1 232.964 43.631 A 27.839 27.839 0 0 1 225.9 54.8 A 28.655 28.655 0 0 1 208.068 63.092 A 38.902 38.902 0 0 1 204 63.3 Z M 124.1 63.3 L 115.3 63.3 A 18.82 18.82 0 0 0 115.614 61.858 Q 115.886 60.352 116.05 58.35 Q 116.299 55.309 116.399 50.826 A 235.844 235.844 0 0 0 116.4 50.8 L 116.4 32.4 L 116.4 14 Q 116.331 10.769 116.192 8.246 A 95.27 95.27 0 0 0 116.05 6.1 A 48.471 48.471 0 0 0 115.869 4.227 Q 115.644 2.306 115.3 1 L 137.2 1 A 20.019 20.019 0 0 1 146.534 3.349 A 24.598 24.598 0 0 1 148.2 4.3 A 15.383 15.383 0 0 1 155.381 15.405 A 21.171 21.171 0 0 1 155.6 18.5 A 19.07 19.07 0 0 1 154.629 24.736 A 15.641 15.641 0 0 1 148.4 32.7 Q 143.3 36.1 137.1 36.6 Q 136.411 36.6 135.253 36.629 A 184.212 184.212 0 0 0 134.5 36.65 Q 132.8 36.7 130.75 36.75 Q 128.7 36.8 126.7 36.8 L 123.2 36.8 Q 123.2 38.052 123.16 38.865 A 19.488 19.488 0 0 1 123.15 39.05 Q 123.1 39.9 123.1 41.3 Q 123.1 42.372 123.071 44.176 A 448.077 448.077 0 0 1 123.05 45.35 Q 123 48 123 52.9 Q 123.08 55.636 123.258 57.821 A 62.081 62.081 0 0 0 123.35 58.85 A 35.721 35.721 0 0 0 123.617 60.957 Q 123.819 62.231 124.1 63.3 Z M 204.1 8.2 L 193.4 8.2 L 193.4 19.7 Q 193.3 23.5 193.3 26.4 L 193.3 31.2 A 654.088 654.088 0 0 0 193.319 35.837 Q 193.372 43.285 193.578 55.506 A 4285.374 4285.374 0 0 0 193.6 56.8 L 203.9 56.8 A 26.197 26.197 0 0 0 211.673 55.7 A 20.791 20.791 0 0 0 220.7 50.1 A 23.243 23.243 0 0 0 227.117 35.289 A 30.864 30.864 0 0 0 227.2 33 A 38.512 38.512 0 0 0 226.114 23.412 Q 222.943 11.112 210.508 8.758 A 34.479 34.479 0 0 0 204.1 8.2 Z M 166.4 1.2 L 175.2 1.2 A 17.928 17.928 0 0 0 174.912 2.51 Q 174.622 4.084 174.45 6.25 A 97.807 97.807 0 0 0 174.284 8.802 Q 174.223 9.945 174.177 11.219 A 194.947 194.947 0 0 0 174.1 13.9 L 174.1 32.3 L 174.1 50.4 A 192.116 192.116 0 0 0 174.232 54.607 Q 174.475 60.21 175.014 62.898 A 15.397 15.397 0 0 0 175.1 63.3 L 166.4 63.3 Q 167.229 60.435 167.49 54.615 A 122.716 122.716 0 0 0 167.6 50.5 L 167.6 21.9 A 1657.117 1657.117 0 0 0 167.596 18.353 Q 167.582 11.829 167.512 9.728 A 32.648 32.648 0 0 0 167.5 9.4 A 57.64 57.64 0 0 0 167.316 6.642 A 47.176 47.176 0 0 0 167.15 5.1 Q 166.9 3.1 166.4 1.2 Z M 322.1 1.2 L 330.9 1.2 A 17.928 17.928 0 0 0 330.612 2.51 Q 330.322 4.084 330.15 6.25 A 97.807 97.807 0 0 0 329.984 8.802 Q 329.923 9.945 329.877 11.219 A 194.947 194.947 0 0 0 329.8 13.9 L 329.8 32.3 L 329.8 50.4 A 192.116 192.116 0 0 0 329.932 54.607 Q 330.175 60.21 330.714 62.898 A 15.397 15.397 0 0 0 330.8 63.3 L 322.1 63.3 Q 322.929 60.435 323.19 54.615 A 122.716 122.716 0 0 0 323.3 50.5 L 323.3 21.9 A 1657.117 1657.117 0 0 0 323.296 18.353 Q 323.282 11.829 323.212 9.728 A 32.648 32.648 0 0 0 323.2 9.4 A 57.64 57.64 0 0 0 323.016 6.642 A 47.176 47.176 0 0 0 322.85 5.1 Q 322.6 3.1 322.1 1.2 Z M 123.3 6.7 L 123.2 30.8 Q 129.2 30.9 132.65 30.85 A 100.575 100.575 0 0 0 134.042 30.821 Q 135.885 30.769 136.748 30.656 A 5.335 5.335 0 0 0 137.1 30.6 Q 148.601 28.915 148.601 18.677 A 18.422 18.422 0 0 0 148.6 18.5 Q 148.6 13.4 145.8 10.6 A 10.528 10.528 0 0 0 142.305 8.201 A 13.509 13.509 0 0 0 140.6 7.6 Q 139.7 7.4 138.8 7.3 A 13.343 13.343 0 0 1 137.519 7.096 A 11.608 11.608 0 0 1 137.1 7 A 20.998 20.998 0 0 0 135.731 6.868 Q 132.156 6.619 123.3 6.7 Z M 8 6.7 L 7.9 28.8 Q 13.9 28.9 17.35 28.85 A 100.575 100.575 0 0 0 18.742 28.821 Q 20.585 28.769 21.448 28.656 A 5.335 5.335 0 0 0 21.8 28.6 Q 27.4 27.8 30.3 25.4 A 7.445 7.445 0 0 0 32.488 22.256 Q 33.25 20.271 33.3 17.5 Q 33.3 14.7 32.45 12.75 Q 31.6 10.8 30.1 9.6 A 9.342 9.342 0 0 0 27.881 8.296 A 11.915 11.915 0 0 0 26.45 7.8 A 23.267 23.267 0 0 0 23.328 7.164 A 27.807 27.807 0 0 0 21.8 7 A 20.998 20.998 0 0 0 20.431 6.868 Q 16.856 6.619 8 6.7 Z M 469.2 6.7 L 469.1 28.8 Q 475.1 28.9 478.55 28.85 A 100.575 100.575 0 0 0 479.942 28.821 Q 481.785 28.769 482.648 28.656 A 5.335 5.335 0 0 0 483 28.6 Q 488.6 27.8 491.5 25.4 A 7.445 7.445 0 0 0 493.688 22.256 Q 494.45 20.271 494.5 17.5 Q 494.5 14.7 493.65 12.75 Q 492.8 10.8 491.3 9.6 A 9.342 9.342 0 0 0 489.081 8.296 A 11.915 11.915 0 0 0 487.65 7.8 A 23.267 23.267 0 0 0 484.528 7.164 A 27.807 27.807 0 0 0 483 7 A 20.998 20.998 0 0 0 481.631 6.868 Q 478.056 6.619 469.2 6.7 Z M 66 36.7 L 86.9 36.7 A 658.182 658.182 0 0 1 81.958 22.239 A 600.616 600.616 0 0 1 81.65 21.3 Q 79.2 13.8 77 6.6 Q 75.928 9.892 74.094 15.031 A 721.765 721.765 0 0 1 72.9 18.35 Q 70.2 25.8 66 36.7 Z" vector-effect="non-scaling-stroke"/></g></svg>