<svg width="595.656" height="91.016" viewBox="0 0 595.656 91.016" xmlns="http://www.w3.org/2000/svg"><g id="svgGroup" stroke-linecap="round" fill-rule="evenodd" font-size="9pt" stroke="#000" stroke-width="0.25mm" fill="#000" style="stroke:#000;stroke-width:0.25mm;fill:#000"><path d="M 194.239 53.809 L 194.727 60.84 A 7.97 7.97 0 0 1 194.389 63.226 A 6.048 6.048 0 0 1 191.993 66.455 Q 190.235 67.676 187.329 67.676 A 22.83 22.83 0 0 1 186.153 67.648 Q 184.371 67.555 183.616 67.159 A 1.739 1.739 0 0 1 183.496 67.09 A 2.865 2.865 0 0 1 182.381 65.784 Q 181.885 64.7 181.885 62.939 A 2.797 2.797 0 0 1 181.919 62.592 Q 182.064 61.562 182.837 58.13 A 26.745 26.745 0 0 0 183.254 55.685 Q 183.614 52.887 183.732 48.736 A 154.493 154.493 0 0 0 183.789 44.36 Q 183.789 36.445 182.816 33.297 A 6.091 6.091 0 0 0 182.373 32.202 A 4.75 4.75 0 0 0 178.927 29.724 A 7.773 7.773 0 0 0 177.442 29.59 Q 173.926 29.59 171.216 31.982 A 17.199 17.199 0 0 0 168.872 34.485 A 13.526 13.526 0 0 0 167.261 37.207 Q 166.016 40.039 165.064 50.684 Q 164.112 61.328 163.721 62.891 A 3.632 3.632 0 0 1 162.996 64.364 Q 161.984 65.562 159.842 65.576 A 7.773 7.773 0 0 1 159.79 65.576 A 8.504 8.504 0 0 1 158.21 65.44 Q 156.226 65.064 155.347 63.647 A 7.744 7.744 0 0 1 154.348 61.056 A 10.832 10.832 0 0 1 154.151 58.936 L 154.395 57.227 L 155.323 53.857 Q 155.826 51.843 155.969 49.252 A 36.22 36.22 0 0 0 156.006 48.389 A 2034.206 2034.206 0 0 1 156.269 41.705 Q 156.812 28.491 157.129 26.27 Q 157.514 23.578 160.548 23.536 A 6.997 6.997 0 0 1 160.645 23.535 L 167.92 24.756 Q 170.146 24.756 173.65 23.5 A 38.184 38.184 0 0 0 174.024 23.364 A 22.058 22.058 0 0 1 181.739 21.973 A 14.926 14.926 0 0 1 186.288 22.714 Q 188.097 23.291 189.966 24.316 Q 194.239 26.66 194.629 26.66 Q 194.971 26.66 198.741 24.834 A 286.307 286.307 0 0 0 199.903 24.268 Q 203.675 22.419 206.879 21.999 A 14.119 14.119 0 0 1 208.716 21.875 Q 212.647 21.875 215.21 23.511 A 13.255 13.255 0 0 1 217.447 25.284 A 10.418 10.418 0 0 1 219.092 27.393 A 11.382 11.382 0 0 1 220.123 29.983 Q 221.582 35.157 221.582 46.484 A 560.963 560.963 0 0 0 221.587 48.775 Q 221.605 53.304 221.704 54.077 A 12.387 12.387 0 0 0 221.789 54.624 Q 221.922 55.383 222.202 56.634 A 107.654 107.654 0 0 0 222.388 57.446 A 29.204 29.204 0 0 1 222.684 58.871 Q 222.941 60.296 222.949 61.333 A 8.588 8.588 0 0 1 222.95 61.401 A 4.233 4.233 0 0 1 222.632 62.97 Q 222.315 63.77 221.68 64.6 Q 220.41 66.26 218.311 66.26 Q 214.323 66.26 213.446 63.149 A 5.672 5.672 0 0 1 213.379 62.891 Q 212.793 60.449 212.012 48.633 A 293.176 293.176 0 0 0 211.732 44.545 Q 211.149 36.882 210.48 34.97 A 3.242 3.242 0 0 0 210.401 34.766 A 6.433 6.433 0 0 0 205.849 30.813 Q 204.548 30.469 202.93 30.469 A 5.236 5.236 0 0 0 198.879 32.375 Q 198.179 33.164 197.594 34.279 A 13.764 13.764 0 0 0 197.217 35.059 A 27.62 27.62 0 0 0 195.529 40.215 Q 194.324 45.435 194.244 52.756 A 96.31 96.31 0 0 0 194.239 53.809 Z M 319.19 47.07 L 319.19 45.703 A 29.148 29.148 0 0 1 320.777 36.255 A 28.388 28.388 0 0 1 322.626 31.958 A 21.807 21.807 0 0 1 325 28.394 Q 327.637 25.195 331.885 23.389 Q 336.133 21.582 340.576 21.582 L 341.846 21.582 Q 344.23 21.582 347.933 22.812 A 41.677 41.677 0 0 1 348.267 22.925 A 95.978 95.978 0 0 0 349.634 23.381 Q 352.292 24.245 353.038 24.267 A 1.281 1.281 0 0 0 353.076 24.268 A 31.374 31.374 0 0 1 353.998 24.097 Q 354.993 23.928 355.699 23.889 A 7.279 7.279 0 0 1 356.104 23.877 A 4.056 4.056 0 0 1 358.228 24.405 Q 359.857 25.382 360.236 28.167 A 13.835 13.835 0 0 1 360.352 30.029 A 15.48 15.48 0 0 1 360.306 30.991 Q 360.142 33.334 359.397 40.201 A 1310.202 1310.202 0 0 1 359.034 43.506 Q 358.037 52.474 357.794 59.406 A 121.837 121.837 0 0 0 357.715 63.672 A 100.866 100.866 0 0 1 357.626 68.064 Q 357.453 72.036 356.939 74.736 A 21.545 21.545 0 0 1 356.592 76.27 A 18.948 18.948 0 0 1 352.45 84.183 Q 349.803 87.146 345.77 88.947 A 24.216 24.216 0 0 1 345.508 89.063 A 24.177 24.177 0 0 1 337.997 90.908 A 29.144 29.144 0 0 1 335.474 91.016 A 26.425 26.425 0 0 1 330.286 90.527 A 20.762 20.762 0 0 1 325.708 89.062 Q 322.238 87.476 321.587 85.375 A 3.356 3.356 0 0 1 321.436 84.375 A 3.261 3.261 0 0 1 321.732 82.935 Q 322.402 81.558 324.583 81.306 A 9.198 9.198 0 0 1 325.635 81.25 Q 326.412 81.25 329.668 81.806 A 180.578 180.578 0 0 1 330.127 81.885 A 80.231 80.231 0 0 0 331.83 82.162 Q 333.417 82.402 334.483 82.481 A 12.635 12.635 0 0 0 335.401 82.52 A 15.479 15.479 0 0 0 340.008 81.863 A 12.501 12.501 0 0 0 345.093 78.833 Q 348.877 75.146 348.877 69.385 A 5.995 5.995 0 0 0 348.786 68.289 Q 348.443 66.454 346.807 66.362 A 3.141 3.141 0 0 0 346.631 66.357 A 2.061 2.061 0 0 0 346.447 66.368 Q 346.004 66.409 344.96 66.614 A 54.133 54.133 0 0 0 344.776 66.65 Q 340.659 67.474 337.262 67.48 A 28.158 28.158 0 0 1 337.207 67.48 Q 328.516 67.48 324.121 62.207 A 16.141 16.141 0 0 1 322.444 59.758 Q 321.44 57.982 320.63 55.688 A 25.68 25.68 0 0 1 319.19 47.07 Z M 296.143 60.693 L 295.996 57.568 A 154.842 154.842 0 0 1 295.655 47.266 A 101.855 101.855 0 0 0 295.549 42.428 Q 295.203 35.186 293.726 32.251 A 7.062 7.062 0 0 0 291.82 29.841 Q 290.023 28.418 287.256 28.418 Q 284.229 28.418 281.665 30.225 A 10.997 10.997 0 0 0 278.39 33.912 A 13.75 13.75 0 0 0 277.735 35.254 A 23.179 23.179 0 0 0 276.496 39.249 Q 274.975 45.968 274.906 58.415 A 215.95 215.95 0 0 0 274.903 59.619 Q 274.903 63.672 273.365 65.332 A 5.081 5.081 0 0 1 269.656 66.989 A 6.728 6.728 0 0 1 269.434 66.992 L 268.457 66.992 A 10.1 10.1 0 0 1 266.461 66.813 Q 263.366 66.186 263.03 63.366 A 6.08 6.08 0 0 1 262.989 62.646 L 262.989 61.475 A 1.97 1.97 0 0 1 263.017 61.179 Q 263.117 60.542 263.575 59.131 L 264.356 56.885 A 16.815 16.815 0 0 0 264.812 54.722 Q 265.528 50.089 265.528 39.941 L 265.772 25.439 A 3.654 3.654 0 0 1 265.935 24.296 Q 266.475 22.656 268.799 22.656 A 9.722 9.722 0 0 1 272.834 23.56 A 13.053 13.053 0 0 1 274.781 24.658 A 44.359 44.359 0 0 0 275.813 25.339 Q 277.85 26.637 278.517 26.66 A 0.686 0.686 0 0 0 278.54 26.66 A 1.985 1.985 0 0 0 279.004 26.594 Q 279.706 26.422 280.909 25.797 A 24.751 24.751 0 0 0 281.397 25.537 A 49.297 49.297 0 0 1 284.957 23.762 Q 288.458 22.204 291.07 21.869 A 10.726 10.726 0 0 1 292.432 21.777 L 293.701 21.777 Q 301.172 21.777 304.2 28.516 Q 305.48 31.289 305.641 39.655 A 131.415 131.415 0 0 1 305.664 42.187 L 305.664 42.529 A 31.683 31.683 0 0 1 305.616 44.287 L 305.616 46.777 L 305.616 48.584 L 305.616 49.902 Q 305.616 53.662 305.86 55.029 A 19.709 19.709 0 0 0 306.459 57.406 A 24.015 24.015 0 0 0 306.983 58.887 A 16.054 16.054 0 0 1 307.455 60.328 Q 307.813 61.638 307.813 62.695 Q 307.813 66.081 302.283 66.294 A 19.957 19.957 0 0 1 301.514 66.309 A 11.563 11.563 0 0 1 299.878 66.202 Q 297.644 65.881 296.729 64.6 A 1.993 1.993 0 0 1 296.479 64.066 Q 296.187 63.16 296.149 61.28 A 28.922 28.922 0 0 1 296.143 60.693 Z M 583.985 60.693 L 583.838 57.568 A 154.842 154.842 0 0 1 583.496 47.266 A 101.855 101.855 0 0 0 583.39 42.428 Q 583.044 35.186 581.568 32.251 A 7.062 7.062 0 0 0 579.662 29.841 Q 577.865 28.418 575.098 28.418 Q 572.071 28.418 569.507 30.225 A 10.997 10.997 0 0 0 566.232 33.912 A 13.75 13.75 0 0 0 565.576 35.254 A 23.179 23.179 0 0 0 564.337 39.249 Q 562.817 45.968 562.748 58.415 A 215.95 215.95 0 0 0 562.744 59.619 Q 562.744 63.672 561.206 65.332 A 5.081 5.081 0 0 1 557.498 66.989 A 6.728 6.728 0 0 1 557.276 66.992 L 556.299 66.992 A 10.1 10.1 0 0 1 554.303 66.813 Q 551.208 66.186 550.871 63.366 A 6.08 6.08 0 0 1 550.83 62.646 L 550.83 61.475 A 1.97 1.97 0 0 1 550.858 61.179 Q 550.959 60.542 551.416 59.131 L 552.198 56.885 A 16.815 16.815 0 0 0 552.654 54.722 Q 553.369 50.089 553.369 39.941 L 553.614 25.439 A 3.654 3.654 0 0 1 553.777 24.296 Q 554.317 22.656 556.641 22.656 A 9.722 9.722 0 0 1 560.676 23.56 A 13.053 13.053 0 0 1 562.622 24.658 A 44.359 44.359 0 0 0 563.655 25.339 Q 565.692 26.637 566.359 26.66 A 0.686 0.686 0 0 0 566.382 26.66 A 1.985 1.985 0 0 0 566.845 26.594 Q 567.548 26.422 568.751 25.797 A 24.751 24.751 0 0 0 569.239 25.537 A 49.297 49.297 0 0 1 572.799 23.762 Q 576.3 22.204 578.911 21.869 A 10.726 10.726 0 0 1 580.274 21.777 L 581.543 21.777 Q 589.014 21.777 592.041 28.516 Q 593.321 31.289 593.483 39.655 A 131.415 131.415 0 0 1 593.506 42.187 L 593.506 42.529 A 31.683 31.683 0 0 1 593.457 44.287 L 593.457 46.777 L 593.457 48.584 L 593.457 49.902 Q 593.457 53.662 593.701 55.029 A 19.709 19.709 0 0 0 594.3 57.406 A 24.015 24.015 0 0 0 594.825 58.887 A 16.054 16.054 0 0 1 595.297 60.328 Q 595.655 61.638 595.655 62.695 Q 595.655 66.081 590.125 66.294 A 19.957 19.957 0 0 1 589.356 66.309 A 11.563 11.563 0 0 1 587.72 66.202 Q 585.486 65.881 584.571 64.6 A 1.993 1.993 0 0 1 584.321 64.066 Q 584.029 63.16 583.99 61.28 A 28.922 28.922 0 0 1 583.985 60.693 Z M 418.311 19.482 L 419.58 19.482 Q 423.895 19.482 427.021 20.305 A 15.503 15.503 0 0 1 429.761 21.289 A 8.357 8.357 0 0 1 431.633 22.482 A 5.306 5.306 0 0 1 433.545 26.685 A 5.908 5.908 0 0 1 433.404 28.039 Q 432.876 30.273 430.371 30.273 A 1.838 1.838 0 0 1 429.912 30.193 Q 428.801 29.885 425.893 28.403 A 95.888 95.888 0 0 1 425.684 28.296 A 20.179 20.179 0 0 0 422.622 27.016 Q 420.779 26.427 419.046 26.335 A 12.043 12.043 0 0 0 418.409 26.318 A 12.354 12.354 0 0 0 416.131 26.516 Q 414.247 26.87 412.915 27.856 A 4.885 4.885 0 0 0 410.875 31.407 A 6.421 6.421 0 0 0 410.84 32.08 Q 410.84 34.766 413.721 36.768 Q 415.381 37.939 421.558 40.479 A 61.46 61.46 0 0 1 424.752 41.891 Q 427.676 43.293 429.473 44.633 A 13.504 13.504 0 0 1 430.371 45.361 A 12.167 12.167 0 0 1 434.602 54.234 A 15.625 15.625 0 0 1 434.619 54.98 Q 434.619 60.84 429.639 65.015 Q 424.659 69.189 416.7 69.189 L 415.43 69.189 A 44.525 44.525 0 0 1 411.242 69.006 Q 406.296 68.537 403.418 66.87 A 10.32 10.32 0 0 1 401.438 65.411 A 6.156 6.156 0 0 1 399.414 60.815 A 6.525 6.525 0 0 1 399.548 59.429 Q 399.986 57.426 401.852 57.131 A 4.404 4.404 0 0 1 402.539 57.08 A 1.944 1.944 0 0 1 403.092 57.189 Q 404.396 57.601 407.653 59.575 A 92.754 92.754 0 0 1 407.886 59.717 A 19.642 19.642 0 0 0 411.606 61.508 A 14.361 14.361 0 0 0 416.382 62.354 A 15.65 15.65 0 0 0 418.678 62.196 Q 419.851 62.022 420.798 61.654 A 6.452 6.452 0 0 0 422.657 60.571 A 5.966 5.966 0 0 0 424.198 58.627 A 5.76 5.76 0 0 0 424.756 56.079 A 5.348 5.348 0 0 0 423.456 52.598 A 8.411 8.411 0 0 0 422.119 51.318 Q 420.703 50.195 414.014 47.241 Q 407.821 44.506 404.787 41.729 A 14.608 14.608 0 0 1 404.322 41.284 Q 401.49 38.453 401.328 33.429 A 19.166 19.166 0 0 1 401.319 32.813 Q 401.319 27.344 406.201 23.413 A 17.615 17.615 0 0 1 414.844 19.728 A 23.671 23.671 0 0 1 418.311 19.482 Z M 0 48.242 L 0 45.996 A 33.822 33.822 0 0 1 0.447 40.368 A 25.385 25.385 0 0 1 1.905 35.107 A 27.715 27.715 0 0 1 5.321 28.855 A 20.209 20.209 0 0 1 13.135 22.412 Q 18.067 20.068 23.34 20.068 L 24.414 20.068 Q 29.26 20.068 32.714 21.665 A 13.654 13.654 0 0 1 34.034 22.363 A 10.806 10.806 0 0 1 35.853 23.715 Q 36.846 24.645 37.343 25.709 A 5.294 5.294 0 0 1 37.842 27.979 Q 37.842 31.307 35.08 31.763 A 5.823 5.823 0 0 1 34.131 31.836 Q 33.448 31.836 29.346 29.688 A 28.561 28.561 0 0 0 27.155 28.673 Q 24.897 27.749 23.187 27.612 A 7.249 7.249 0 0 0 22.608 27.588 L 22.51 27.588 A 10.583 10.583 0 0 0 17.805 28.61 Q 15.277 29.845 13.501 32.568 A 18.625 18.625 0 0 0 11.118 38.103 Q 10.484 40.545 10.315 43.42 A 36.555 36.555 0 0 0 10.254 45.557 A 29.599 29.599 0 0 0 10.55 49.892 Q 10.878 52.106 11.573 53.879 A 11.63 11.63 0 0 0 13.697 57.422 A 11.26 11.26 0 0 0 20.214 61.007 A 16.595 16.595 0 0 0 23.291 61.279 Q 25.83 61.279 30.274 59.839 Q 34.717 58.398 35.694 58.398 A 2.741 2.741 0 0 1 36.498 58.506 Q 37.696 58.874 37.696 60.498 A 3.465 3.465 0 0 1 37.032 62.451 Q 36.141 63.766 34.054 65.091 A 24.865 24.865 0 0 1 32.08 66.211 A 27.333 27.333 0 0 1 26.514 68.372 A 21.582 21.582 0 0 1 21.045 69.092 A 28.159 28.159 0 0 1 13.848 68.238 Q 5.329 65.985 1.909 57.795 A 22.643 22.643 0 0 1 1.856 57.666 A 24.686 24.686 0 0 1 0 48.242 Z M 67.481 69.482 L 65.918 69.482 Q 57.373 69.482 52.002 63.525 Q 47.363 58.38 46.731 49.518 A 40.603 40.603 0 0 1 46.631 46.631 L 46.68 45.801 Q 46.68 35.767 51.109 29.277 A 21.673 21.673 0 0 1 53.028 26.855 A 21.32 21.32 0 0 1 58.292 22.588 A 19.684 19.684 0 0 1 60.62 21.46 A 24.997 24.997 0 0 1 64.726 20.174 A 19.007 19.007 0 0 1 68.75 19.727 L 71.143 19.727 A 18.799 18.799 0 0 1 79.395 21.631 A 18.897 18.897 0 0 1 90.009 35.247 A 32.028 32.028 0 0 1 90.723 42.236 L 90.723 43.018 A 34.575 34.575 0 0 1 89.489 51.721 A 39.391 39.391 0 0 1 89.112 53.027 A 24.695 24.695 0 0 1 85.274 60.664 A 21.466 21.466 0 0 1 77.1 67.187 A 25.568 25.568 0 0 1 72.079 68.944 A 20.356 20.356 0 0 1 67.481 69.482 Z M 120.362 69.482 L 118.799 69.482 Q 110.254 69.482 104.883 63.525 Q 100.244 58.38 99.612 49.518 A 40.603 40.603 0 0 1 99.512 46.631 L 99.561 45.801 Q 99.561 35.767 103.99 29.277 A 21.673 21.673 0 0 1 105.909 26.855 A 21.32 21.32 0 0 1 111.173 22.588 A 19.684 19.684 0 0 1 113.501 21.46 A 24.997 24.997 0 0 1 117.606 20.174 A 19.007 19.007 0 0 1 121.631 19.727 L 124.024 19.727 A 18.799 18.799 0 0 1 132.276 21.631 A 18.897 18.897 0 0 1 142.89 35.247 A 32.028 32.028 0 0 1 143.604 42.236 L 143.604 43.018 A 34.575 34.575 0 0 1 142.37 51.721 A 39.391 39.391 0 0 1 141.993 53.027 A 24.695 24.695 0 0 1 138.155 60.664 A 21.466 21.466 0 0 1 129.981 67.187 A 25.568 25.568 0 0 1 124.96 68.944 A 20.356 20.356 0 0 1 120.362 69.482 Z M 464.649 69.482 L 463.086 69.482 Q 454.541 69.482 449.17 63.525 Q 444.531 58.38 443.899 49.518 A 40.603 40.603 0 0 1 443.799 46.631 L 443.848 45.801 Q 443.848 35.767 448.277 29.277 A 21.673 21.673 0 0 1 450.196 26.855 A 21.32 21.32 0 0 1 455.46 22.588 A 19.684 19.684 0 0 1 457.788 21.46 A 24.997 24.997 0 0 1 461.894 20.174 A 19.007 19.007 0 0 1 465.918 19.727 L 468.311 19.727 A 18.799 18.799 0 0 1 476.563 21.631 A 18.897 18.897 0 0 1 487.177 35.247 A 32.028 32.028 0 0 1 487.891 42.236 L 487.891 43.018 A 34.575 34.575 0 0 1 486.657 51.721 A 39.391 39.391 0 0 1 486.28 53.027 A 24.695 24.695 0 0 1 482.442 60.664 A 21.466 21.466 0 0 1 474.268 67.187 A 25.568 25.568 0 0 1 469.247 68.944 A 20.356 20.356 0 0 1 464.649 69.482 Z M 517.53 69.482 L 515.967 69.482 Q 507.422 69.482 502.051 63.525 Q 497.412 58.38 496.78 49.518 A 40.603 40.603 0 0 1 496.68 46.631 L 496.729 45.801 Q 496.729 35.767 501.158 29.277 A 21.673 21.673 0 0 1 503.076 26.855 A 21.32 21.32 0 0 1 508.341 22.588 A 19.684 19.684 0 0 1 510.669 21.46 A 24.997 24.997 0 0 1 514.774 20.174 A 19.007 19.007 0 0 1 518.799 19.727 L 521.192 19.727 A 18.799 18.799 0 0 1 529.444 21.631 A 18.897 18.897 0 0 1 540.058 35.247 A 32.028 32.028 0 0 1 540.772 42.236 L 540.772 43.018 A 34.575 34.575 0 0 1 539.538 51.721 A 39.391 39.391 0 0 1 539.16 53.027 A 24.695 24.695 0 0 1 535.323 60.664 A 21.466 21.466 0 0 1 527.149 67.187 A 25.568 25.568 0 0 1 522.128 68.944 A 20.356 20.356 0 0 1 517.53 69.482 Z M 248.633 25.684 L 248.096 38.818 L 247.998 40.137 L 247.852 44.141 L 247.852 46.045 Q 247.852 52.09 248.159 54.562 A 11.525 11.525 0 0 0 248.267 55.273 A 13.798 13.798 0 0 0 249.693 59.253 A 15.616 15.616 0 0 0 249.854 59.546 A 19.538 19.538 0 0 1 250.339 60.456 Q 250.993 61.773 251.024 62.48 A 1.57 1.57 0 0 1 251.026 62.549 L 251.026 62.988 A 3.982 3.982 0 0 1 249.506 66.156 A 6.453 6.453 0 0 1 248.584 66.797 Q 246.143 68.213 241.944 68.213 L 240.723 68.213 A 8.671 8.671 0 0 1 239.316 68.106 Q 237.886 67.871 237.012 67.114 A 4.66 4.66 0 0 1 236.343 66.411 Q 235.743 65.619 235.743 64.746 L 235.743 63.672 A 2.306 2.306 0 0 1 235.782 63.32 Q 235.953 62.309 236.866 59.155 A 23.472 23.472 0 0 0 237.493 56.23 Q 237.957 53.233 237.987 49.151 A 77.569 77.569 0 0 0 237.989 48.584 A 102.693 102.693 0 0 0 238.051 47.73 Q 238.123 46.682 238.133 46.124 A 9.439 9.439 0 0 0 238.135 45.947 L 238.282 43.262 L 238.379 41.943 A 145.624 145.624 0 0 0 238.486 40.329 Q 238.591 38.584 238.616 37.337 A 36.347 36.347 0 0 0 238.623 36.621 L 238.672 34.668 A 19.106 19.106 0 0 0 238.382 31.264 A 14.596 14.596 0 0 0 237.476 28.174 Q 236.292 25.371 236.28 24.672 A 0.82 0.82 0 0 1 236.28 24.658 Q 236.28 21.441 241.84 21.168 A 22.035 22.035 0 0 1 242.92 21.143 L 244.678 21.143 Q 246.826 21.143 247.666 22.105 A 2.003 2.003 0 0 1 247.901 22.437 Q 248.559 23.599 248.626 25.294 A 9.896 9.896 0 0 1 248.633 25.684 Z M 56.446 44.775 L 56.446 47.949 Q 56.446 54.225 59.266 58.433 A 14.677 14.677 0 0 0 59.375 58.594 A 11.999 11.999 0 0 0 61.335 60.834 A 7.712 7.712 0 0 0 66.553 62.842 L 68.018 62.842 A 9.203 9.203 0 0 0 74.514 60.161 A 14.815 14.815 0 0 0 76.538 57.764 A 18.376 18.376 0 0 0 79.087 52.106 Q 79.735 49.714 79.938 46.892 A 37.103 37.103 0 0 0 80.03 44.238 L 80.03 41.016 A 24.586 24.586 0 0 0 79.628 36.441 Q 79.115 33.735 77.949 31.572 A 14.127 14.127 0 0 0 77.173 30.298 A 10.898 10.898 0 0 0 75.016 27.921 A 8.063 8.063 0 0 0 69.825 26.123 L 68.848 26.123 A 9.565 9.565 0 0 0 61.897 29.095 A 15.145 15.145 0 0 0 60.083 31.299 A 20.173 20.173 0 0 0 56.779 40.084 A 26.273 26.273 0 0 0 56.543 43.652 L 56.446 44.775 Z M 109.326 44.775 L 109.326 47.949 Q 109.326 54.225 112.147 58.433 A 14.677 14.677 0 0 0 112.256 58.594 A 11.999 11.999 0 0 0 114.216 60.834 A 7.712 7.712 0 0 0 119.434 62.842 L 120.899 62.842 A 9.203 9.203 0 0 0 127.395 60.161 A 14.815 14.815 0 0 0 129.419 57.764 A 18.376 18.376 0 0 0 131.968 52.106 Q 132.616 49.714 132.818 46.892 A 37.103 37.103 0 0 0 132.91 44.238 L 132.91 41.016 A 24.586 24.586 0 0 0 132.509 36.441 Q 131.996 33.735 130.83 31.572 A 14.127 14.127 0 0 0 130.054 30.298 A 10.898 10.898 0 0 0 127.897 27.921 A 8.063 8.063 0 0 0 122.705 26.123 L 121.729 26.123 A 9.565 9.565 0 0 0 114.778 29.095 A 15.145 15.145 0 0 0 112.964 31.299 A 20.173 20.173 0 0 0 109.659 40.084 A 26.273 26.273 0 0 0 109.424 43.652 L 109.326 44.775 Z M 453.614 44.775 L 453.614 47.949 Q 453.614 54.225 456.434 58.433 A 14.677 14.677 0 0 0 456.543 58.594 A 11.999 11.999 0 0 0 458.503 60.834 A 7.712 7.712 0 0 0 463.721 62.842 L 465.186 62.842 A 9.203 9.203 0 0 0 471.682 60.161 A 14.815 14.815 0 0 0 473.706 57.764 A 18.376 18.376 0 0 0 476.255 52.106 Q 476.903 49.714 477.106 46.892 A 37.103 37.103 0 0 0 477.198 44.238 L 477.198 41.016 A 24.586 24.586 0 0 0 476.796 36.441 Q 476.283 33.735 475.117 31.572 A 14.127 14.127 0 0 0 474.341 30.298 A 10.898 10.898 0 0 0 472.184 27.921 A 8.063 8.063 0 0 0 466.993 26.123 L 466.016 26.123 A 9.565 9.565 0 0 0 459.065 29.095 A 15.145 15.145 0 0 0 457.251 31.299 A 20.173 20.173 0 0 0 453.947 40.084 A 26.273 26.273 0 0 0 453.711 43.652 L 453.614 44.775 Z M 506.494 44.775 L 506.494 47.949 Q 506.494 54.225 509.315 58.433 A 14.677 14.677 0 0 0 509.424 58.594 A 11.999 11.999 0 0 0 511.384 60.834 A 7.712 7.712 0 0 0 516.602 62.842 L 518.067 62.842 A 9.203 9.203 0 0 0 524.563 60.161 A 14.815 14.815 0 0 0 526.587 57.764 A 18.376 18.376 0 0 0 529.136 52.106 Q 529.784 49.714 529.986 46.892 A 37.103 37.103 0 0 0 530.078 44.238 L 530.078 41.016 A 24.586 24.586 0 0 0 529.677 36.441 Q 529.164 33.735 527.998 31.572 A 14.127 14.127 0 0 0 527.222 30.298 A 10.898 10.898 0 0 0 525.065 27.921 A 8.063 8.063 0 0 0 519.873 26.123 L 518.897 26.123 A 9.565 9.565 0 0 0 511.946 29.095 A 15.145 15.145 0 0 0 510.132 31.299 A 20.173 20.173 0 0 0 506.827 40.084 A 26.273 26.273 0 0 0 506.592 43.652 L 506.494 44.775 Z M 327.735 45.947 L 327.735 47.461 Q 327.735 54.004 330.225 57.715 A 10.103 10.103 0 0 0 331.905 59.672 A 6.698 6.698 0 0 0 336.475 61.426 L 338.184 61.426 A 10.256 10.256 0 0 0 342.331 60.613 Q 344.562 59.639 346.181 57.496 A 12.664 12.664 0 0 0 346.631 56.86 A 15.982 15.982 0 0 0 348.591 52.543 Q 349.192 50.518 349.454 48.081 A 37.74 37.74 0 0 0 349.659 44.043 Q 349.739 43.238 349.753 42.732 A 7.271 7.271 0 0 0 349.756 42.529 L 349.854 40.527 L 349.854 37.598 Q 349.779 36.85 349.762 36.389 A 6.795 6.795 0 0 1 349.756 36.133 A 12.933 12.933 0 0 0 349.542 33.703 Q 349.275 32.31 348.677 31.214 A 6.828 6.828 0 0 0 347.901 30.078 Q 346.045 27.881 342.432 27.881 L 341.065 27.881 A 11.416 11.416 0 0 0 332.386 31.698 A 15.518 15.518 0 0 0 331.519 32.715 A 16.536 16.536 0 0 0 328.696 38.388 Q 328.035 40.676 327.829 43.391 A 33.735 33.735 0 0 0 327.735 45.947 Z M 250.928 5.078 L 250.928 5.664 A 7.157 7.157 0 0 1 250.612 7.832 A 6.033 6.033 0 0 1 249.488 9.888 Q 248.166 11.478 245.55 11.609 A 9.605 9.605 0 0 1 245.069 11.621 L 244.287 11.621 L 242.774 11.426 Q 241.56 11.426 240.428 10.391 A 6.056 6.056 0 0 1 240.235 10.205 Q 239.014 8.984 239.014 6.543 L 239.014 5.957 L 239.258 4.199 Q 239.258 3.314 240.185 2.066 A 10.413 10.413 0 0 1 240.503 1.66 A 4.124 4.124 0 0 1 241.925 0.525 A 4.1 4.1 0 0 1 243.701 0.146 L 244.825 0 L 245.801 0 L 247.168 0.195 A 2.84 2.84 0 0 1 248.471 0.526 Q 249.08 0.837 249.683 1.44 A 3.979 3.979 0 0 1 250.664 3.116 Q 250.858 3.747 250.909 4.509 A 8.423 8.423 0 0 1 250.928 5.078 Z" vector-effect="non-scaling-stroke"/></g></svg>